<mxfile host="app.diagrams.net" agent="Mozilla/5.0 (Windows NT 10.0; Win64; x64) AppleWebKit/537.36 (KHTML, like Gecko) Chrome/131.0.0.0 Safari/537.36" version="24.9.0" pages="9">
  <diagram name="Pagina-1" id="0JFEUQbgVvE62t71hGA_">
    <mxGraphModel dx="1687" dy="908" grid="1" gridSize="10" guides="1" tooltips="1" connect="1" arrows="1" fold="1" page="1" pageScale="1" pageWidth="1169" pageHeight="827" math="0" shadow="0">
      <root>
        <mxCell id="0" />
        <mxCell id="1" parent="0" />
        <mxCell id="iuGWaidak6Ph2gT0RSzn-1" value="DB" style="shape=cylinder3;whiteSpace=wrap;html=1;boundedLbl=1;backgroundOutline=1;size=15;" vertex="1" parent="1">
          <mxGeometry x="80" y="310" width="120" height="130" as="geometry" />
        </mxCell>
        <mxCell id="iuGWaidak6Ph2gT0RSzn-2" value="" style="endArrow=none;dashed=1;html=1;dashPattern=1 3;strokeWidth=2;rounded=0;" edge="1" parent="1" target="iuGWaidak6Ph2gT0RSzn-4">
          <mxGeometry width="50" height="50" relative="1" as="geometry">
            <mxPoint x="240" y="550" as="sourcePoint" />
            <mxPoint x="240" y="180" as="targetPoint" />
          </mxGeometry>
        </mxCell>
        <mxCell id="iuGWaidak6Ph2gT0RSzn-3" value="3306" style="text;strokeColor=none;fillColor=none;html=1;fontSize=24;fontStyle=1;verticalAlign=middle;align=center;" vertex="1" parent="1">
          <mxGeometry x="90" y="115" width="100" height="40" as="geometry" />
        </mxCell>
        <mxCell id="iuGWaidak6Ph2gT0RSzn-4" value="" style="image;aspect=fixed;perimeter=ellipsePerimeter;html=1;align=center;shadow=0;dashed=0;spacingTop=3;image=img/lib/active_directory/generic_server.svg;" vertex="1" parent="1">
          <mxGeometry x="226" y="110" width="28.000000000000004" height="50" as="geometry" />
        </mxCell>
        <mxCell id="iuGWaidak6Ph2gT0RSzn-5" value="" style="sketch=0;outlineConnect=0;fontColor=#232F3E;gradientColor=none;fillColor=#C925D1;strokeColor=none;dashed=0;verticalLabelPosition=bottom;verticalAlign=top;align=center;html=1;fontSize=12;fontStyle=0;aspect=fixed;pointerEvents=1;shape=mxgraph.aws4.rds_mysql_instance_alt;" vertex="1" parent="1">
          <mxGeometry x="101" y="530" width="78" height="78" as="geometry" />
        </mxCell>
        <mxCell id="iuGWaidak6Ph2gT0RSzn-12" value="request" style="edgeStyle=orthogonalEdgeStyle;rounded=0;orthogonalLoop=1;jettySize=auto;html=1;exitX=0;exitY=0.5;exitDx=0;exitDy=0;" edge="1" parent="1" source="iuGWaidak6Ph2gT0RSzn-6" target="iuGWaidak6Ph2gT0RSzn-11">
          <mxGeometry relative="1" as="geometry" />
        </mxCell>
        <mxCell id="iuGWaidak6Ph2gT0RSzn-6" value="" style="image;aspect=fixed;perimeter=ellipsePerimeter;html=1;align=center;shadow=0;dashed=0;spacingTop=3;image=img/lib/active_directory/laptop_client.svg;" vertex="1" parent="1">
          <mxGeometry x="930" y="85" width="63" height="70" as="geometry" />
        </mxCell>
        <mxCell id="iuGWaidak6Ph2gT0RSzn-7" value="" style="image;aspect=fixed;perimeter=ellipsePerimeter;html=1;align=center;shadow=0;dashed=0;spacingTop=3;image=img/lib/active_directory/mac_client.svg;" vertex="1" parent="1">
          <mxGeometry x="930" y="190" width="75.2" height="80" as="geometry" />
        </mxCell>
        <mxCell id="iuGWaidak6Ph2gT0RSzn-8" value="" style="image;aspect=fixed;perimeter=ellipsePerimeter;html=1;align=center;shadow=0;dashed=0;spacingTop=3;image=img/lib/active_directory/vista_client.svg;" vertex="1" parent="1">
          <mxGeometry x="923.5" y="290" width="76" height="100" as="geometry" />
        </mxCell>
        <mxCell id="iuGWaidak6Ph2gT0RSzn-9" value="" style="sketch=0;outlineConnect=0;fontColor=#232F3E;gradientColor=none;fillColor=#232F3D;strokeColor=none;dashed=0;verticalLabelPosition=bottom;verticalAlign=top;align=center;html=1;fontSize=12;fontStyle=0;aspect=fixed;pointerEvents=1;shape=mxgraph.aws4.mobile_client;" vertex="1" parent="1">
          <mxGeometry x="941" y="420" width="41" height="78" as="geometry" />
        </mxCell>
        <mxCell id="iuGWaidak6Ph2gT0RSzn-10" value="" style="endArrow=none;dashed=1;html=1;dashPattern=1 3;strokeWidth=2;rounded=0;" edge="1" parent="1">
          <mxGeometry width="50" height="50" relative="1" as="geometry">
            <mxPoint x="870" y="610" as="sourcePoint" />
            <mxPoint x="870" y="70" as="targetPoint" />
          </mxGeometry>
        </mxCell>
        <mxCell id="iuGWaidak6Ph2gT0RSzn-13" style="edgeStyle=orthogonalEdgeStyle;rounded=0;orthogonalLoop=1;jettySize=auto;html=1;exitX=0;exitY=0.5;exitDx=0;exitDy=0;" edge="1" parent="1" source="iuGWaidak6Ph2gT0RSzn-11" target="iuGWaidak6Ph2gT0RSzn-1">
          <mxGeometry relative="1" as="geometry">
            <Array as="points">
              <mxPoint x="430" y="120" />
              <mxPoint x="430" y="210" />
              <mxPoint x="140" y="210" />
            </Array>
          </mxGeometry>
        </mxCell>
        <mxCell id="iuGWaidak6Ph2gT0RSzn-16" value="response" style="edgeStyle=orthogonalEdgeStyle;rounded=0;orthogonalLoop=1;jettySize=auto;html=1;exitX=1;exitY=0.75;exitDx=0;exitDy=0;entryX=0.25;entryY=1;entryDx=0;entryDy=0;" edge="1" parent="1" source="iuGWaidak6Ph2gT0RSzn-11" target="iuGWaidak6Ph2gT0RSzn-6">
          <mxGeometry relative="1" as="geometry" />
        </mxCell>
        <mxCell id="iuGWaidak6Ph2gT0RSzn-11" value="" style="image;aspect=fixed;perimeter=ellipsePerimeter;html=1;align=center;shadow=0;dashed=0;spacingTop=3;image=img/lib/active_directory/generic_server.svg;" vertex="1" parent="1">
          <mxGeometry x="530" y="50.70999999999998" width="78" height="139.29" as="geometry" />
        </mxCell>
        <mxCell id="iuGWaidak6Ph2gT0RSzn-14" value="" style="dashed=0;outlineConnect=0;html=1;align=center;labelPosition=center;verticalLabelPosition=bottom;verticalAlign=top;shape=mxgraph.weblogos.java" vertex="1" parent="1">
          <mxGeometry x="551.8" y="190" width="34.4" height="65" as="geometry" />
        </mxCell>
        <mxCell id="iuGWaidak6Ph2gT0RSzn-15" value="" style="dashed=0;outlineConnect=0;html=1;align=center;labelPosition=center;verticalLabelPosition=bottom;verticalAlign=top;shape=mxgraph.weblogos.html5" vertex="1" parent="1">
          <mxGeometry x="1020" y="110" width="52.400000000000006" height="74" as="geometry" />
        </mxCell>
        <mxCell id="iuGWaidak6Ph2gT0RSzn-17" value="client-side" style="text;strokeColor=none;fillColor=none;html=1;fontSize=24;fontStyle=1;verticalAlign=middle;align=center;" vertex="1" parent="1">
          <mxGeometry x="923.5" y="10.709999999999994" width="100" height="40" as="geometry" />
        </mxCell>
        <mxCell id="iuGWaidak6Ph2gT0RSzn-18" value="server-side" style="text;strokeColor=none;fillColor=none;html=1;fontSize=24;fontStyle=1;verticalAlign=middle;align=center;" vertex="1" parent="1">
          <mxGeometry x="519" y="10.709999999999994" width="100" height="40" as="geometry" />
        </mxCell>
      </root>
    </mxGraphModel>
  </diagram>
  <diagram id="ixuWDuMgF-62dHnEqWw4" name="Pagina-2">
    <mxGraphModel dx="989" dy="532" grid="1" gridSize="10" guides="1" tooltips="1" connect="1" arrows="1" fold="1" page="1" pageScale="1" pageWidth="1169" pageHeight="827" math="0" shadow="0">
      <root>
        <mxCell id="0" />
        <mxCell id="1" parent="0" />
        <mxCell id="Uhaytn-2ax85fTsFf05E-1" value="tipo" style="text;strokeColor=none;fillColor=none;html=1;fontSize=24;fontStyle=1;verticalAlign=middle;align=center;" vertex="1" parent="1">
          <mxGeometry x="390" y="60" width="100" height="40" as="geometry" />
        </mxCell>
        <mxCell id="Uhaytn-2ax85fTsFf05E-2" value="" style="shape=curlyBracket;whiteSpace=wrap;html=1;rounded=1;flipH=1;labelPosition=right;verticalLabelPosition=middle;align=left;verticalAlign=middle;rotation=-90;" vertex="1" parent="1">
          <mxGeometry x="432.5" y="-167.5" width="20" height="575" as="geometry" />
        </mxCell>
        <mxCell id="Uhaytn-2ax85fTsFf05E-3" value="primitivi" style="text;strokeColor=none;fillColor=none;html=1;fontSize=24;fontStyle=1;verticalAlign=middle;align=center;" vertex="1" parent="1">
          <mxGeometry x="105" y="132" width="100" height="40" as="geometry" />
        </mxCell>
        <mxCell id="Uhaytn-2ax85fTsFf05E-4" value="&lt;ul&gt;&lt;li&gt;&lt;span style=&quot;background-color: initial;&quot;&gt;byte&lt;/span&gt;&lt;/li&gt;&lt;li&gt;&lt;span style=&quot;background-color: initial;&quot;&gt;short&lt;/span&gt;&lt;br&gt;&lt;/li&gt;&lt;li&gt;int&lt;/li&gt;&lt;li&gt;long&lt;/li&gt;&lt;/ul&gt;" style="text;strokeColor=none;fillColor=none;html=1;whiteSpace=wrap;verticalAlign=middle;overflow=hidden;" vertex="1" parent="1">
          <mxGeometry x="100" y="172" width="100" height="80" as="geometry" />
        </mxCell>
        <mxCell id="Uhaytn-2ax85fTsFf05E-5" value="&lt;ul&gt;&lt;li&gt;&lt;span style=&quot;background-color: initial;&quot;&gt;float&lt;/span&gt;&lt;/li&gt;&lt;li&gt;&lt;span style=&quot;background-color: initial;&quot;&gt;double&lt;/span&gt;&lt;br&gt;&lt;/li&gt;&lt;/ul&gt;" style="text;strokeColor=none;fillColor=none;html=1;whiteSpace=wrap;verticalAlign=middle;overflow=hidden;" vertex="1" parent="1">
          <mxGeometry x="100" y="250" width="100" height="60" as="geometry" />
        </mxCell>
        <mxCell id="Uhaytn-2ax85fTsFf05E-6" value="&lt;ul&gt;&lt;li&gt;&lt;span style=&quot;background-color: initial;&quot;&gt;char&lt;/span&gt;&lt;/li&gt;&lt;li&gt;&lt;span style=&quot;background-color: initial;&quot;&gt;boolean&lt;/span&gt;&lt;br&gt;&lt;/li&gt;&lt;/ul&gt;" style="text;strokeColor=none;fillColor=none;html=1;whiteSpace=wrap;verticalAlign=middle;overflow=hidden;" vertex="1" parent="1">
          <mxGeometry x="100" y="300" width="100" height="60" as="geometry" />
        </mxCell>
        <mxCell id="Uhaytn-2ax85fTsFf05E-7" value="complessi" style="text;strokeColor=none;fillColor=none;html=1;fontSize=24;fontStyle=1;verticalAlign=middle;align=center;" vertex="1" parent="1">
          <mxGeometry x="520" y="132" width="100" height="40" as="geometry" />
        </mxCell>
        <mxCell id="Uhaytn-2ax85fTsFf05E-8" value="reference" style="text;strokeColor=none;fillColor=none;html=1;fontSize=24;fontStyle=1;verticalAlign=middle;align=center;" vertex="1" parent="1">
          <mxGeometry x="520" y="160" width="100" height="40" as="geometry" />
        </mxCell>
        <mxCell id="Uhaytn-2ax85fTsFf05E-9" value="" style="shape=curlyBracket;whiteSpace=wrap;html=1;rounded=1;flipH=1;labelPosition=right;verticalLabelPosition=middle;align=left;verticalAlign=middle;rotation=-90;" vertex="1" parent="1">
          <mxGeometry x="560" y="100" width="20" height="200" as="geometry" />
        </mxCell>
        <mxCell id="Uhaytn-2ax85fTsFf05E-12" value="class" style="text;strokeColor=none;fillColor=none;html=1;fontSize=24;fontStyle=1;verticalAlign=middle;align=center;" vertex="1" parent="1">
          <mxGeometry x="420" y="212" width="100" height="40" as="geometry" />
        </mxCell>
        <mxCell id="Uhaytn-2ax85fTsFf05E-13" value="interface" style="text;strokeColor=none;fillColor=none;html=1;fontSize=24;fontStyle=1;verticalAlign=middle;align=center;" vertex="1" parent="1">
          <mxGeometry x="520" y="212" width="100" height="40" as="geometry" />
        </mxCell>
        <mxCell id="Uhaytn-2ax85fTsFf05E-14" value="array" style="text;strokeColor=none;fillColor=none;html=1;fontSize=24;fontStyle=1;verticalAlign=middle;align=center;" vertex="1" parent="1">
          <mxGeometry x="620" y="212" width="100" height="40" as="geometry" />
        </mxCell>
        <mxCell id="Uhaytn-2ax85fTsFf05E-15" value="int i = 7;" style="text;strokeColor=none;fillColor=none;html=1;fontSize=24;fontStyle=1;verticalAlign=middle;align=center;" vertex="1" parent="1">
          <mxGeometry x="100" y="374" width="100" height="40" as="geometry" />
        </mxCell>
        <mxCell id="Uhaytn-2ax85fTsFf05E-16" value="" style="shape=table;startSize=0;container=1;collapsible=0;childLayout=tableLayout;fontSize=16;" vertex="1" parent="1">
          <mxGeometry x="240" y="320" width="320" height="120" as="geometry" />
        </mxCell>
        <mxCell id="Uhaytn-2ax85fTsFf05E-17" value="" style="shape=tableRow;horizontal=0;startSize=0;swimlaneHead=0;swimlaneBody=0;strokeColor=inherit;top=0;left=0;bottom=0;right=0;collapsible=0;dropTarget=0;fillColor=none;points=[[0,0.5],[1,0.5]];portConstraint=eastwest;fontSize=16;" vertex="1" parent="Uhaytn-2ax85fTsFf05E-16">
          <mxGeometry width="320" height="40" as="geometry" />
        </mxCell>
        <mxCell id="Uhaytn-2ax85fTsFf05E-18" value="i" style="shape=partialRectangle;html=1;whiteSpace=wrap;connectable=0;strokeColor=inherit;overflow=hidden;fillColor=none;top=0;left=0;bottom=0;right=0;pointerEvents=1;fontSize=16;" vertex="1" parent="Uhaytn-2ax85fTsFf05E-17">
          <mxGeometry width="107" height="40" as="geometry">
            <mxRectangle width="107" height="40" as="alternateBounds" />
          </mxGeometry>
        </mxCell>
        <mxCell id="Uhaytn-2ax85fTsFf05E-19" value="a" style="shape=partialRectangle;html=1;whiteSpace=wrap;connectable=0;strokeColor=inherit;overflow=hidden;fillColor=none;top=0;left=0;bottom=0;right=0;pointerEvents=1;fontSize=16;" vertex="1" parent="Uhaytn-2ax85fTsFf05E-17">
          <mxGeometry x="107" width="106" height="40" as="geometry">
            <mxRectangle width="106" height="40" as="alternateBounds" />
          </mxGeometry>
        </mxCell>
        <mxCell id="Uhaytn-2ax85fTsFf05E-20" value="" style="shape=partialRectangle;html=1;whiteSpace=wrap;connectable=0;strokeColor=inherit;overflow=hidden;fillColor=none;top=0;left=0;bottom=0;right=0;pointerEvents=1;fontSize=16;" vertex="1" parent="Uhaytn-2ax85fTsFf05E-17">
          <mxGeometry x="213" width="107" height="40" as="geometry">
            <mxRectangle width="107" height="40" as="alternateBounds" />
          </mxGeometry>
        </mxCell>
        <mxCell id="Uhaytn-2ax85fTsFf05E-21" value="" style="shape=tableRow;horizontal=0;startSize=0;swimlaneHead=0;swimlaneBody=0;strokeColor=inherit;top=0;left=0;bottom=0;right=0;collapsible=0;dropTarget=0;fillColor=none;points=[[0,0.5],[1,0.5]];portConstraint=eastwest;fontSize=16;" vertex="1" parent="Uhaytn-2ax85fTsFf05E-16">
          <mxGeometry y="40" width="320" height="40" as="geometry" />
        </mxCell>
        <mxCell id="Uhaytn-2ax85fTsFf05E-22" value="" style="shape=partialRectangle;html=1;whiteSpace=wrap;connectable=0;strokeColor=inherit;overflow=hidden;fillColor=none;top=0;left=0;bottom=0;right=0;pointerEvents=1;fontSize=16;" vertex="1" parent="Uhaytn-2ax85fTsFf05E-21">
          <mxGeometry width="107" height="40" as="geometry">
            <mxRectangle width="107" height="40" as="alternateBounds" />
          </mxGeometry>
        </mxCell>
        <mxCell id="Uhaytn-2ax85fTsFf05E-23" value="b=1254379EF" style="shape=partialRectangle;html=1;whiteSpace=wrap;connectable=0;strokeColor=inherit;overflow=hidden;fillColor=none;top=0;left=0;bottom=0;right=0;pointerEvents=1;fontSize=16;" vertex="1" parent="Uhaytn-2ax85fTsFf05E-21">
          <mxGeometry x="107" width="106" height="40" as="geometry">
            <mxRectangle width="106" height="40" as="alternateBounds" />
          </mxGeometry>
        </mxCell>
        <mxCell id="Uhaytn-2ax85fTsFf05E-24" value="" style="shape=partialRectangle;html=1;whiteSpace=wrap;connectable=0;strokeColor=inherit;overflow=hidden;fillColor=none;top=0;left=0;bottom=0;right=0;pointerEvents=1;fontSize=16;" vertex="1" parent="Uhaytn-2ax85fTsFf05E-21">
          <mxGeometry x="213" width="107" height="40" as="geometry">
            <mxRectangle width="107" height="40" as="alternateBounds" />
          </mxGeometry>
        </mxCell>
        <mxCell id="Uhaytn-2ax85fTsFf05E-25" value="" style="shape=tableRow;horizontal=0;startSize=0;swimlaneHead=0;swimlaneBody=0;strokeColor=inherit;top=0;left=0;bottom=0;right=0;collapsible=0;dropTarget=0;fillColor=none;points=[[0,0.5],[1,0.5]];portConstraint=eastwest;fontSize=16;" vertex="1" parent="Uhaytn-2ax85fTsFf05E-16">
          <mxGeometry y="80" width="320" height="40" as="geometry" />
        </mxCell>
        <mxCell id="Uhaytn-2ax85fTsFf05E-26" value="" style="shape=partialRectangle;html=1;whiteSpace=wrap;connectable=0;strokeColor=inherit;overflow=hidden;fillColor=none;top=0;left=0;bottom=0;right=0;pointerEvents=1;fontSize=16;" vertex="1" parent="Uhaytn-2ax85fTsFf05E-25">
          <mxGeometry width="107" height="40" as="geometry">
            <mxRectangle width="107" height="40" as="alternateBounds" />
          </mxGeometry>
        </mxCell>
        <mxCell id="Uhaytn-2ax85fTsFf05E-27" value="" style="shape=partialRectangle;html=1;whiteSpace=wrap;connectable=0;strokeColor=inherit;overflow=hidden;fillColor=none;top=0;left=0;bottom=0;right=0;pointerEvents=1;fontSize=16;" vertex="1" parent="Uhaytn-2ax85fTsFf05E-25">
          <mxGeometry x="107" width="106" height="40" as="geometry">
            <mxRectangle width="106" height="40" as="alternateBounds" />
          </mxGeometry>
        </mxCell>
        <mxCell id="Uhaytn-2ax85fTsFf05E-28" value="" style="shape=partialRectangle;html=1;whiteSpace=wrap;connectable=0;strokeColor=inherit;overflow=hidden;fillColor=none;top=0;left=0;bottom=0;right=0;pointerEvents=1;fontSize=16;" vertex="1" parent="Uhaytn-2ax85fTsFf05E-25">
          <mxGeometry x="213" width="107" height="40" as="geometry">
            <mxRectangle width="107" height="40" as="alternateBounds" />
          </mxGeometry>
        </mxCell>
        <mxCell id="Uhaytn-2ax85fTsFf05E-29" value="int a = i;" style="text;strokeColor=none;fillColor=none;html=1;fontSize=24;fontStyle=1;verticalAlign=middle;align=center;" vertex="1" parent="1">
          <mxGeometry x="101" y="402" width="100" height="40" as="geometry" />
        </mxCell>
        <mxCell id="Uhaytn-2ax85fTsFf05E-30" value="Bicicletta b = new Bicicletta():" style="text;strokeColor=none;fillColor=none;html=1;fontSize=24;fontStyle=1;verticalAlign=middle;align=center;" vertex="1" parent="1">
          <mxGeometry x="420" y="450" width="340" height="50" as="geometry" />
        </mxCell>
        <mxCell id="Uhaytn-2ax85fTsFf05E-44" value="" style="shape=table;startSize=0;container=1;collapsible=0;childLayout=tableLayout;fontSize=16;" vertex="1" parent="1">
          <mxGeometry x="230" y="540" width="310" height="120" as="geometry" />
        </mxCell>
        <mxCell id="Uhaytn-2ax85fTsFf05E-45" value="" style="shape=tableRow;horizontal=0;startSize=0;swimlaneHead=0;swimlaneBody=0;strokeColor=inherit;top=0;left=0;bottom=0;right=0;collapsible=0;dropTarget=0;fillColor=none;points=[[0,0.5],[1,0.5]];portConstraint=eastwest;fontSize=16;" vertex="1" parent="Uhaytn-2ax85fTsFf05E-44">
          <mxGeometry width="310" height="40" as="geometry" />
        </mxCell>
        <mxCell id="Uhaytn-2ax85fTsFf05E-46" value="" style="shape=partialRectangle;html=1;whiteSpace=wrap;connectable=0;strokeColor=inherit;overflow=hidden;fillColor=none;top=0;left=0;bottom=0;right=0;pointerEvents=1;fontSize=16;" vertex="1" parent="Uhaytn-2ax85fTsFf05E-45">
          <mxGeometry width="103" height="40" as="geometry">
            <mxRectangle width="103" height="40" as="alternateBounds" />
          </mxGeometry>
        </mxCell>
        <mxCell id="Uhaytn-2ax85fTsFf05E-47" value="1254379EF" style="shape=partialRectangle;html=1;whiteSpace=wrap;connectable=0;strokeColor=inherit;overflow=hidden;fillColor=none;top=0;left=0;bottom=0;right=0;pointerEvents=1;fontSize=16;" vertex="1" parent="Uhaytn-2ax85fTsFf05E-45">
          <mxGeometry x="103" width="104" height="40" as="geometry">
            <mxRectangle width="104" height="40" as="alternateBounds" />
          </mxGeometry>
        </mxCell>
        <mxCell id="Uhaytn-2ax85fTsFf05E-48" value="" style="shape=partialRectangle;html=1;whiteSpace=wrap;connectable=0;strokeColor=inherit;overflow=hidden;fillColor=none;top=0;left=0;bottom=0;right=0;pointerEvents=1;fontSize=16;" vertex="1" parent="Uhaytn-2ax85fTsFf05E-45">
          <mxGeometry x="207" width="103" height="40" as="geometry">
            <mxRectangle width="103" height="40" as="alternateBounds" />
          </mxGeometry>
        </mxCell>
        <mxCell id="Uhaytn-2ax85fTsFf05E-49" value="" style="shape=tableRow;horizontal=0;startSize=0;swimlaneHead=0;swimlaneBody=0;strokeColor=inherit;top=0;left=0;bottom=0;right=0;collapsible=0;dropTarget=0;fillColor=none;points=[[0,0.5],[1,0.5]];portConstraint=eastwest;fontSize=16;" vertex="1" parent="Uhaytn-2ax85fTsFf05E-44">
          <mxGeometry y="40" width="310" height="40" as="geometry" />
        </mxCell>
        <mxCell id="Uhaytn-2ax85fTsFf05E-50" value="" style="shape=partialRectangle;html=1;whiteSpace=wrap;connectable=0;strokeColor=inherit;overflow=hidden;fillColor=none;top=0;left=0;bottom=0;right=0;pointerEvents=1;fontSize=16;" vertex="1" parent="Uhaytn-2ax85fTsFf05E-49">
          <mxGeometry width="103" height="40" as="geometry">
            <mxRectangle width="103" height="40" as="alternateBounds" />
          </mxGeometry>
        </mxCell>
        <mxCell id="Uhaytn-2ax85fTsFf05E-51" value="" style="shape=partialRectangle;html=1;whiteSpace=wrap;connectable=0;strokeColor=inherit;overflow=hidden;fillColor=none;top=0;left=0;bottom=0;right=0;pointerEvents=1;fontSize=16;" vertex="1" parent="Uhaytn-2ax85fTsFf05E-49">
          <mxGeometry x="103" width="104" height="40" as="geometry">
            <mxRectangle width="104" height="40" as="alternateBounds" />
          </mxGeometry>
        </mxCell>
        <mxCell id="Uhaytn-2ax85fTsFf05E-52" value="" style="shape=partialRectangle;html=1;whiteSpace=wrap;connectable=0;strokeColor=inherit;overflow=hidden;fillColor=none;top=0;left=0;bottom=0;right=0;pointerEvents=1;fontSize=16;" vertex="1" parent="Uhaytn-2ax85fTsFf05E-49">
          <mxGeometry x="207" width="103" height="40" as="geometry">
            <mxRectangle width="103" height="40" as="alternateBounds" />
          </mxGeometry>
        </mxCell>
        <mxCell id="Uhaytn-2ax85fTsFf05E-53" value="" style="shape=tableRow;horizontal=0;startSize=0;swimlaneHead=0;swimlaneBody=0;strokeColor=inherit;top=0;left=0;bottom=0;right=0;collapsible=0;dropTarget=0;fillColor=none;points=[[0,0.5],[1,0.5]];portConstraint=eastwest;fontSize=16;" vertex="1" parent="Uhaytn-2ax85fTsFf05E-44">
          <mxGeometry y="80" width="310" height="40" as="geometry" />
        </mxCell>
        <mxCell id="Uhaytn-2ax85fTsFf05E-54" value="" style="shape=partialRectangle;html=1;whiteSpace=wrap;connectable=0;strokeColor=inherit;overflow=hidden;fillColor=none;top=0;left=0;bottom=0;right=0;pointerEvents=1;fontSize=16;" vertex="1" parent="Uhaytn-2ax85fTsFf05E-53">
          <mxGeometry width="103" height="40" as="geometry">
            <mxRectangle width="103" height="40" as="alternateBounds" />
          </mxGeometry>
        </mxCell>
        <mxCell id="Uhaytn-2ax85fTsFf05E-55" value="" style="shape=partialRectangle;html=1;whiteSpace=wrap;connectable=0;strokeColor=inherit;overflow=hidden;fillColor=none;top=0;left=0;bottom=0;right=0;pointerEvents=1;fontSize=16;" vertex="1" parent="Uhaytn-2ax85fTsFf05E-53">
          <mxGeometry x="103" width="104" height="40" as="geometry">
            <mxRectangle width="104" height="40" as="alternateBounds" />
          </mxGeometry>
        </mxCell>
        <mxCell id="Uhaytn-2ax85fTsFf05E-56" value="" style="shape=partialRectangle;html=1;whiteSpace=wrap;connectable=0;strokeColor=inherit;overflow=hidden;fillColor=none;top=0;left=0;bottom=0;right=0;pointerEvents=1;fontSize=16;" vertex="1" parent="Uhaytn-2ax85fTsFf05E-53">
          <mxGeometry x="207" width="103" height="40" as="geometry">
            <mxRectangle width="103" height="40" as="alternateBounds" />
          </mxGeometry>
        </mxCell>
        <mxCell id="Uhaytn-2ax85fTsFf05E-57" value="&lt;span style=&quot;color: rgb(0, 0, 0); font-family: Helvetica; font-size: 24px; font-style: normal; font-variant-ligatures: normal; font-variant-caps: normal; font-weight: 700; letter-spacing: normal; orphans: 2; text-align: center; text-indent: 0px; text-transform: none; widows: 2; word-spacing: 0px; -webkit-text-stroke-width: 0px; white-space: nowrap; background-color: rgb(251, 251, 251); text-decoration-thickness: initial; text-decoration-style: initial; text-decoration-color: initial; display: inline !important; float: none;&quot;&gt;Bicicletta c =&lt;span&gt;&amp;nbsp;b;&lt;/span&gt;&lt;/span&gt;" style="text;whiteSpace=wrap;html=1;" vertex="1" parent="1">
          <mxGeometry x="420" y="490" width="190" height="50" as="geometry" />
        </mxCell>
        <mxCell id="Uhaytn-2ax85fTsFf05E-58" value="c=1254379EF" style="shape=partialRectangle;html=1;whiteSpace=wrap;connectable=0;strokeColor=inherit;overflow=hidden;fillColor=none;top=0;left=0;bottom=0;right=0;pointerEvents=1;fontSize=16;" vertex="1" parent="1">
          <mxGeometry x="454" y="360" width="106" height="40" as="geometry">
            <mxRectangle width="106" height="40" as="alternateBounds" />
          </mxGeometry>
        </mxCell>
        <mxCell id="Uhaytn-2ax85fTsFf05E-59" value="" style="endArrow=classic;html=1;rounded=0;exitX=0.502;exitY=1.01;exitDx=0;exitDy=0;exitPerimeter=0;entryX=0.448;entryY=-0.059;entryDx=0;entryDy=0;entryPerimeter=0;" edge="1" parent="1" source="Uhaytn-2ax85fTsFf05E-21" target="Uhaytn-2ax85fTsFf05E-45">
          <mxGeometry width="50" height="50" relative="1" as="geometry">
            <mxPoint x="260" y="420" as="sourcePoint" />
            <mxPoint x="310" y="370" as="targetPoint" />
          </mxGeometry>
        </mxCell>
        <mxCell id="Uhaytn-2ax85fTsFf05E-60" value="" style="endArrow=classic;html=1;rounded=0;entryX=0.484;entryY=0;entryDx=0;entryDy=0;entryPerimeter=0;" edge="1" parent="1" target="Uhaytn-2ax85fTsFf05E-45">
          <mxGeometry width="50" height="50" relative="1" as="geometry">
            <mxPoint x="500" y="400" as="sourcePoint" />
            <mxPoint x="379" y="530" as="targetPoint" />
          </mxGeometry>
        </mxCell>
      </root>
    </mxGraphModel>
  </diagram>
  <diagram id="s8Vkf0nwW-byJirmrB1n" name="Pagina-3">
    <mxGraphModel dx="1434" dy="772" grid="1" gridSize="10" guides="1" tooltips="1" connect="1" arrows="1" fold="1" page="1" pageScale="1" pageWidth="1169" pageHeight="827" math="0" shadow="0">
      <root>
        <mxCell id="0" />
        <mxCell id="1" parent="0" />
        <mxCell id="hicslNyEBtJLCXgIS7VF-1" value="" style="shape=cylinder3;whiteSpace=wrap;html=1;boundedLbl=1;backgroundOutline=1;size=15;" vertex="1" parent="1">
          <mxGeometry x="90" y="120" width="60" height="80" as="geometry" />
        </mxCell>
        <mxCell id="hicslNyEBtJLCXgIS7VF-2" value="" style="whiteSpace=wrap;html=1;shape=mxgraph.basic.document" vertex="1" parent="1">
          <mxGeometry x="85" y="240" width="70" height="90" as="geometry" />
        </mxCell>
        <mxCell id="hicslNyEBtJLCXgIS7VF-3" value="" style="endArrow=none;dashed=1;html=1;dashPattern=1 3;strokeWidth=2;rounded=0;" edge="1" parent="1">
          <mxGeometry width="50" height="50" relative="1" as="geometry">
            <mxPoint x="180" y="400" as="sourcePoint" />
            <mxPoint x="180" y="60" as="targetPoint" />
          </mxGeometry>
        </mxCell>
        <mxCell id="hicslNyEBtJLCXgIS7VF-4" value="Libro" style="swimlane;fontStyle=1;align=center;verticalAlign=top;childLayout=stackLayout;horizontal=1;startSize=26;horizontalStack=0;resizeParent=1;resizeParentMax=0;resizeLast=0;collapsible=1;marginBottom=0;whiteSpace=wrap;html=1;" vertex="1" parent="1">
          <mxGeometry x="310" y="110" width="160" height="138" as="geometry" />
        </mxCell>
        <mxCell id="hicslNyEBtJLCXgIS7VF-5" value="- titolo: String" style="text;strokeColor=none;fillColor=none;align=left;verticalAlign=top;spacingLeft=4;spacingRight=4;overflow=hidden;rotatable=0;points=[[0,0.5],[1,0.5]];portConstraint=eastwest;whiteSpace=wrap;html=1;" vertex="1" parent="hicslNyEBtJLCXgIS7VF-4">
          <mxGeometry y="26" width="160" height="26" as="geometry" />
        </mxCell>
        <mxCell id="hicslNyEBtJLCXgIS7VF-8" value="- autore: String" style="text;strokeColor=none;fillColor=none;align=left;verticalAlign=top;spacingLeft=4;spacingRight=4;overflow=hidden;rotatable=0;points=[[0,0.5],[1,0.5]];portConstraint=eastwest;whiteSpace=wrap;html=1;" vertex="1" parent="hicslNyEBtJLCXgIS7VF-4">
          <mxGeometry y="52" width="160" height="26" as="geometry" />
        </mxCell>
        <mxCell id="hicslNyEBtJLCXgIS7VF-9" value="- pagine:int" style="text;strokeColor=none;fillColor=none;align=left;verticalAlign=top;spacingLeft=4;spacingRight=4;overflow=hidden;rotatable=0;points=[[0,0.5],[1,0.5]];portConstraint=eastwest;whiteSpace=wrap;html=1;" vertex="1" parent="hicslNyEBtJLCXgIS7VF-4">
          <mxGeometry y="78" width="160" height="26" as="geometry" />
        </mxCell>
        <mxCell id="hicslNyEBtJLCXgIS7VF-6" value="" style="line;strokeWidth=1;fillColor=none;align=left;verticalAlign=middle;spacingTop=-1;spacingLeft=3;spacingRight=3;rotatable=0;labelPosition=right;points=[];portConstraint=eastwest;strokeColor=inherit;" vertex="1" parent="hicslNyEBtJLCXgIS7VF-4">
          <mxGeometry y="104" width="160" height="8" as="geometry" />
        </mxCell>
        <mxCell id="hicslNyEBtJLCXgIS7VF-7" value="+ stampaScheda(): String" style="text;strokeColor=none;fillColor=none;align=left;verticalAlign=top;spacingLeft=4;spacingRight=4;overflow=hidden;rotatable=0;points=[[0,0.5],[1,0.5]];portConstraint=eastwest;whiteSpace=wrap;html=1;" vertex="1" parent="hicslNyEBtJLCXgIS7VF-4">
          <mxGeometry y="112" width="160" height="26" as="geometry" />
        </mxCell>
        <mxCell id="hicslNyEBtJLCXgIS7VF-10" value="Scaffale" style="swimlane;fontStyle=1;align=center;verticalAlign=top;childLayout=stackLayout;horizontal=1;startSize=26;horizontalStack=0;resizeParent=1;resizeParentMax=0;resizeLast=0;collapsible=1;marginBottom=0;whiteSpace=wrap;html=1;" vertex="1" parent="1">
          <mxGeometry x="560" y="106" width="200" height="138" as="geometry" />
        </mxCell>
        <mxCell id="hicslNyEBtJLCXgIS7VF-11" value="- libri: Libro[]" style="text;strokeColor=none;fillColor=none;align=left;verticalAlign=top;spacingLeft=4;spacingRight=4;overflow=hidden;rotatable=0;points=[[0,0.5],[1,0.5]];portConstraint=eastwest;whiteSpace=wrap;html=1;" vertex="1" parent="hicslNyEBtJLCXgIS7VF-10">
          <mxGeometry y="26" width="200" height="26" as="geometry" />
        </mxCell>
        <mxCell id="hicslNyEBtJLCXgIS7VF-12" value="" style="line;strokeWidth=1;fillColor=none;align=left;verticalAlign=middle;spacingTop=-1;spacingLeft=3;spacingRight=3;rotatable=0;labelPosition=right;points=[];portConstraint=eastwest;strokeColor=inherit;" vertex="1" parent="hicslNyEBtJLCXgIS7VF-10">
          <mxGeometry y="52" width="200" height="8" as="geometry" />
        </mxCell>
        <mxCell id="hicslNyEBtJLCXgIS7VF-13" value="+ addLibro(Libro): void" style="text;strokeColor=none;fillColor=none;align=left;verticalAlign=top;spacingLeft=4;spacingRight=4;overflow=hidden;rotatable=0;points=[[0,0.5],[1,0.5]];portConstraint=eastwest;whiteSpace=wrap;html=1;" vertex="1" parent="hicslNyEBtJLCXgIS7VF-10">
          <mxGeometry y="60" width="200" height="26" as="geometry" />
        </mxCell>
        <mxCell id="hicslNyEBtJLCXgIS7VF-14" value="+ getLibri(): Libro[]" style="text;strokeColor=none;fillColor=none;align=left;verticalAlign=top;spacingLeft=4;spacingRight=4;overflow=hidden;rotatable=0;points=[[0,0.5],[1,0.5]];portConstraint=eastwest;whiteSpace=wrap;html=1;" vertex="1" parent="hicslNyEBtJLCXgIS7VF-10">
          <mxGeometry y="86" width="200" height="26" as="geometry" />
        </mxCell>
        <mxCell id="hicslNyEBtJLCXgIS7VF-15" value="+ getLibroByTitolo(String): Libro" style="text;strokeColor=none;fillColor=none;align=left;verticalAlign=top;spacingLeft=4;spacingRight=4;overflow=hidden;rotatable=0;points=[[0,0.5],[1,0.5]];portConstraint=eastwest;whiteSpace=wrap;html=1;" vertex="1" parent="hicslNyEBtJLCXgIS7VF-10">
          <mxGeometry y="112" width="200" height="26" as="geometry" />
        </mxCell>
        <mxCell id="hicslNyEBtJLCXgIS7VF-16" value="" style="strokeWidth=1;shadow=0;dashed=0;align=center;html=1;shape=mxgraph.mockup.containers.browserWindow;rSize=0;strokeColor=#666666;strokeColor2=#008cff;strokeColor3=#c4c4c4;mainText=,;recursiveResize=0;" vertex="1" parent="1">
          <mxGeometry x="300" y="390" width="550" height="380" as="geometry" />
        </mxCell>
        <mxCell id="hicslNyEBtJLCXgIS7VF-17" value="Page 1" style="strokeWidth=1;shadow=0;dashed=0;align=center;html=1;shape=mxgraph.mockup.containers.anchor;fontSize=17;fontColor=#666666;align=left;whiteSpace=wrap;" vertex="1" parent="hicslNyEBtJLCXgIS7VF-16">
          <mxGeometry x="60" y="12" width="110" height="26" as="geometry" />
        </mxCell>
        <mxCell id="hicslNyEBtJLCXgIS7VF-18" value="https://www.draw.io" style="strokeWidth=1;shadow=0;dashed=0;align=center;html=1;shape=mxgraph.mockup.containers.anchor;rSize=0;fontSize=17;fontColor=#666666;align=left;" vertex="1" parent="hicslNyEBtJLCXgIS7VF-16">
          <mxGeometry x="130" y="60" width="250" height="26" as="geometry" />
        </mxCell>
        <mxCell id="hicslNyEBtJLCXgIS7VF-23" value="Add" style="rounded=1;fillColor=#0057D8;strokeColor=none;html=1;whiteSpace=wrap;fontColor=#ffffff;align=center;verticalAlign=middle;fontStyle=0;fontSize=12;sketch=0;" vertex="1" parent="hicslNyEBtJLCXgIS7VF-16">
          <mxGeometry x="380" y="320" width="86" height="33" as="geometry" />
        </mxCell>
        <mxCell id="hicslNyEBtJLCXgIS7VF-19" value="Example label" style="fillColor=none;strokeColor=none;align=left;fontSize=14;fontColor=#212529;" vertex="1" parent="1">
          <mxGeometry x="340" y="540" width="260" height="40" as="geometry" />
        </mxCell>
        <mxCell id="hicslNyEBtJLCXgIS7VF-20" value="Example input placeholder" style="html=1;shadow=0;dashed=0;shape=mxgraph.bootstrap.rrect;rSize=5;fillColor=none;strokeColor=#999999;align=left;spacing=15;fontSize=14;fontColor=#6C767D;" vertex="1" parent="1">
          <mxGeometry width="400" height="30" relative="1" as="geometry">
            <mxPoint x="340" y="580" as="offset" />
          </mxGeometry>
        </mxCell>
        <mxCell id="hicslNyEBtJLCXgIS7VF-21" value="Another label" style="fillColor=none;strokeColor=none;align=left;fontSize=14;fontColor=#212529;" vertex="1" parent="1">
          <mxGeometry width="260" height="40" relative="1" as="geometry">
            <mxPoint x="340" y="620" as="offset" />
          </mxGeometry>
        </mxCell>
        <mxCell id="hicslNyEBtJLCXgIS7VF-22" value="Another input placeholder" style="html=1;shadow=0;dashed=0;shape=mxgraph.bootstrap.rrect;rSize=5;fillColor=none;strokeColor=#999999;align=left;spacing=15;fontSize=14;fontColor=#6C767D;" vertex="1" parent="1">
          <mxGeometry width="400" height="30" relative="1" as="geometry">
            <mxPoint x="340" y="660" as="offset" />
          </mxGeometry>
        </mxCell>
        <mxCell id="hicslNyEBtJLCXgIS7VF-24" value="LibreriaDemo" style="swimlane;fontStyle=1;align=center;verticalAlign=top;childLayout=stackLayout;horizontal=1;startSize=26;horizontalStack=0;resizeParent=1;resizeParentMax=0;resizeLast=0;collapsible=1;marginBottom=0;whiteSpace=wrap;html=1;" vertex="1" parent="1">
          <mxGeometry x="860" y="119" width="160" height="60" as="geometry" />
        </mxCell>
        <mxCell id="hicslNyEBtJLCXgIS7VF-26" value="" style="line;strokeWidth=1;fillColor=none;align=left;verticalAlign=middle;spacingTop=-1;spacingLeft=3;spacingRight=3;rotatable=0;labelPosition=right;points=[];portConstraint=eastwest;strokeColor=inherit;" vertex="1" parent="hicslNyEBtJLCXgIS7VF-24">
          <mxGeometry y="26" width="160" height="8" as="geometry" />
        </mxCell>
        <mxCell id="hicslNyEBtJLCXgIS7VF-27" value="+ main()" style="text;strokeColor=none;fillColor=none;align=left;verticalAlign=top;spacingLeft=4;spacingRight=4;overflow=hidden;rotatable=0;points=[[0,0.5],[1,0.5]];portConstraint=eastwest;whiteSpace=wrap;html=1;" vertex="1" parent="hicslNyEBtJLCXgIS7VF-24">
          <mxGeometry y="34" width="160" height="26" as="geometry" />
        </mxCell>
        <mxCell id="hicslNyEBtJLCXgIS7VF-28" style="edgeStyle=orthogonalEdgeStyle;rounded=0;orthogonalLoop=1;jettySize=auto;html=1;exitX=1;exitY=0.5;exitDx=0;exitDy=0;endArrow=none;endFill=0;" edge="1" parent="1" source="hicslNyEBtJLCXgIS7VF-11" target="hicslNyEBtJLCXgIS7VF-24">
          <mxGeometry relative="1" as="geometry" />
        </mxCell>
        <mxCell id="hicslNyEBtJLCXgIS7VF-29" style="edgeStyle=orthogonalEdgeStyle;rounded=0;orthogonalLoop=1;jettySize=auto;html=1;exitX=1;exitY=0.5;exitDx=0;exitDy=0;endArrow=diamondThin;endFill=0;" edge="1" parent="1" source="hicslNyEBtJLCXgIS7VF-8" target="hicslNyEBtJLCXgIS7VF-10">
          <mxGeometry relative="1" as="geometry" />
        </mxCell>
        <mxCell id="hicslNyEBtJLCXgIS7VF-30" value="package" style="shape=folder;fontStyle=1;spacingTop=10;tabWidth=40;tabHeight=14;tabPosition=left;html=1;whiteSpace=wrap;" vertex="1" parent="1">
          <mxGeometry x="310" y="260" width="100" height="60" as="geometry" />
        </mxCell>
      </root>
    </mxGraphModel>
  </diagram>
  <diagram id="mplwAxtKR1whLtdS0lae" name="Pagina-4">
    <mxGraphModel dx="1434" dy="772" grid="1" gridSize="10" guides="1" tooltips="1" connect="1" arrows="1" fold="1" page="1" pageScale="1" pageWidth="1169" pageHeight="827" math="0" shadow="0">
      <root>
        <mxCell id="0" />
        <mxCell id="1" parent="0" />
        <mxCell id="ZTE7Tmf9JD90eNvFtAKK-3" style="edgeStyle=orthogonalEdgeStyle;rounded=0;orthogonalLoop=1;jettySize=auto;html=1;exitX=0.5;exitY=1;exitDx=0;exitDy=0;exitPerimeter=0;" edge="1" parent="1" source="ZTE7Tmf9JD90eNvFtAKK-12" target="ZTE7Tmf9JD90eNvFtAKK-2">
          <mxGeometry relative="1" as="geometry">
            <Array as="points">
              <mxPoint x="420" y="790" />
              <mxPoint x="783" y="790" />
              <mxPoint x="783" y="770" />
              <mxPoint x="1090" y="770" />
            </Array>
          </mxGeometry>
        </mxCell>
        <mxCell id="ZTE7Tmf9JD90eNvFtAKK-1" value="start" style="strokeWidth=2;html=1;shape=mxgraph.flowchart.start_1;whiteSpace=wrap;" vertex="1" parent="1">
          <mxGeometry x="110" y="30" width="100" height="60" as="geometry" />
        </mxCell>
        <mxCell id="ZTE7Tmf9JD90eNvFtAKK-2" value="end" style="strokeWidth=2;html=1;shape=mxgraph.flowchart.start_1;whiteSpace=wrap;" vertex="1" parent="1">
          <mxGeometry x="1040" y="680" width="100" height="60" as="geometry" />
        </mxCell>
        <mxCell id="ZTE7Tmf9JD90eNvFtAKK-5" value="" style="edgeStyle=orthogonalEdgeStyle;rounded=0;orthogonalLoop=1;jettySize=auto;html=1;exitX=0.5;exitY=1;exitDx=0;exitDy=0;exitPerimeter=0;" edge="1" parent="1" source="ZTE7Tmf9JD90eNvFtAKK-1" target="ZTE7Tmf9JD90eNvFtAKK-4">
          <mxGeometry relative="1" as="geometry">
            <mxPoint x="130" y="90" as="sourcePoint" />
            <mxPoint x="1070" y="590" as="targetPoint" />
          </mxGeometry>
        </mxCell>
        <mxCell id="ZTE7Tmf9JD90eNvFtAKK-4" value="u = p, f, c" style="shape=parallelogram;html=1;strokeWidth=2;perimeter=parallelogramPerimeter;whiteSpace=wrap;rounded=1;arcSize=12;size=0.23;" vertex="1" parent="1">
          <mxGeometry x="20" y="150" width="280" height="50" as="geometry" />
        </mxCell>
        <mxCell id="ZTE7Tmf9JD90eNvFtAKK-7" value="" style="edgeStyle=orthogonalEdgeStyle;rounded=0;orthogonalLoop=1;jettySize=auto;html=1;exitX=0.5;exitY=1;exitDx=0;exitDy=0;exitPerimeter=0;" edge="1" parent="1" source="ZTE7Tmf9JD90eNvFtAKK-4" target="ZTE7Tmf9JD90eNvFtAKK-6">
          <mxGeometry relative="1" as="geometry">
            <mxPoint x="160" y="210" as="sourcePoint" />
            <mxPoint x="1070" y="590" as="targetPoint" />
          </mxGeometry>
        </mxCell>
        <mxCell id="ZTE7Tmf9JD90eNvFtAKK-6" value="p = p, f, c" style="rounded=1;whiteSpace=wrap;html=1;absoluteArcSize=1;arcSize=14;strokeWidth=2;" vertex="1" parent="1">
          <mxGeometry x="20" y="240" width="280" height="60" as="geometry" />
        </mxCell>
        <mxCell id="ZTE7Tmf9JD90eNvFtAKK-9" value="" style="edgeStyle=orthogonalEdgeStyle;rounded=0;orthogonalLoop=1;jettySize=auto;html=1;exitX=0.5;exitY=1;exitDx=0;exitDy=0;exitPerimeter=0;" edge="1" parent="1" source="ZTE7Tmf9JD90eNvFtAKK-6" target="ZTE7Tmf9JD90eNvFtAKK-8">
          <mxGeometry relative="1" as="geometry">
            <mxPoint x="160" y="340" as="sourcePoint" />
            <mxPoint x="1070" y="590" as="targetPoint" />
          </mxGeometry>
        </mxCell>
        <mxCell id="ZTE7Tmf9JD90eNvFtAKK-11" value="false" style="edgeStyle=orthogonalEdgeStyle;rounded=0;orthogonalLoop=1;jettySize=auto;html=1;" edge="1" parent="1" source="ZTE7Tmf9JD90eNvFtAKK-8" target="ZTE7Tmf9JD90eNvFtAKK-10">
          <mxGeometry relative="1" as="geometry" />
        </mxCell>
        <mxCell id="ZTE7Tmf9JD90eNvFtAKK-8" value="u == p" style="strokeWidth=2;html=1;shape=mxgraph.flowchart.decision;whiteSpace=wrap;" vertex="1" parent="1">
          <mxGeometry x="370" y="420" width="100" height="100" as="geometry" />
        </mxCell>
        <mxCell id="ZTE7Tmf9JD90eNvFtAKK-15" value="" style="edgeStyle=orthogonalEdgeStyle;rounded=0;orthogonalLoop=1;jettySize=auto;html=1;" edge="1" parent="1" source="ZTE7Tmf9JD90eNvFtAKK-10" target="ZTE7Tmf9JD90eNvFtAKK-14">
          <mxGeometry relative="1" as="geometry" />
        </mxCell>
        <mxCell id="ZTE7Tmf9JD90eNvFtAKK-16" value="true" style="edgeLabel;html=1;align=center;verticalAlign=middle;resizable=0;points=[];" vertex="1" connectable="0" parent="ZTE7Tmf9JD90eNvFtAKK-15">
          <mxGeometry x="-0.36" y="-1" relative="1" as="geometry">
            <mxPoint as="offset" />
          </mxGeometry>
        </mxCell>
        <mxCell id="ZTE7Tmf9JD90eNvFtAKK-18" value="" style="edgeStyle=orthogonalEdgeStyle;rounded=0;orthogonalLoop=1;jettySize=auto;html=1;" edge="1" parent="1" source="ZTE7Tmf9JD90eNvFtAKK-10" target="ZTE7Tmf9JD90eNvFtAKK-17">
          <mxGeometry relative="1" as="geometry" />
        </mxCell>
        <mxCell id="ZTE7Tmf9JD90eNvFtAKK-10" value="u == f&lt;div&gt;p == c&lt;/div&gt;" style="strokeWidth=2;html=1;shape=mxgraph.flowchart.decision;whiteSpace=wrap;" vertex="1" parent="1">
          <mxGeometry x="640" y="420" width="100" height="100" as="geometry" />
        </mxCell>
        <mxCell id="ZTE7Tmf9JD90eNvFtAKK-13" value="true" style="edgeStyle=orthogonalEdgeStyle;rounded=0;orthogonalLoop=1;jettySize=auto;html=1;exitX=0.5;exitY=1;exitDx=0;exitDy=0;exitPerimeter=0;" edge="1" parent="1" source="ZTE7Tmf9JD90eNvFtAKK-8" target="ZTE7Tmf9JD90eNvFtAKK-12">
          <mxGeometry relative="1" as="geometry">
            <mxPoint x="420" y="520" as="sourcePoint" />
            <mxPoint x="1070" y="590" as="targetPoint" />
          </mxGeometry>
        </mxCell>
        <mxCell id="ZTE7Tmf9JD90eNvFtAKK-12" value="result" style="shape=parallelogram;html=1;strokeWidth=2;perimeter=parallelogramPerimeter;whiteSpace=wrap;rounded=1;arcSize=12;size=0.23;" vertex="1" parent="1">
          <mxGeometry x="315" y="710" width="210" height="60" as="geometry" />
        </mxCell>
        <mxCell id="ZTE7Tmf9JD90eNvFtAKK-20" style="edgeStyle=orthogonalEdgeStyle;rounded=0;orthogonalLoop=1;jettySize=auto;html=1;exitX=0.5;exitY=1;exitDx=0;exitDy=0;" edge="1" parent="1" source="ZTE7Tmf9JD90eNvFtAKK-14" target="ZTE7Tmf9JD90eNvFtAKK-12">
          <mxGeometry relative="1" as="geometry">
            <Array as="points">
              <mxPoint x="690" y="720" />
            </Array>
          </mxGeometry>
        </mxCell>
        <mxCell id="ZTE7Tmf9JD90eNvFtAKK-14" value="result = &quot;Umano&quot;" style="whiteSpace=wrap;html=1;strokeWidth=2;" vertex="1" parent="1">
          <mxGeometry x="630" y="570" width="120" height="60" as="geometry" />
        </mxCell>
        <mxCell id="ZTE7Tmf9JD90eNvFtAKK-21" style="edgeStyle=orthogonalEdgeStyle;rounded=0;orthogonalLoop=1;jettySize=auto;html=1;exitX=0.5;exitY=1;exitDx=0;exitDy=0;" edge="1" parent="1" source="ZTE7Tmf9JD90eNvFtAKK-17" target="ZTE7Tmf9JD90eNvFtAKK-12">
          <mxGeometry relative="1" as="geometry">
            <Array as="points">
              <mxPoint x="870" y="720" />
            </Array>
          </mxGeometry>
        </mxCell>
        <mxCell id="ZTE7Tmf9JD90eNvFtAKK-17" value="result = &quot;PC&quot;" style="whiteSpace=wrap;html=1;strokeWidth=2;" vertex="1" parent="1">
          <mxGeometry x="810" y="440" width="120" height="60" as="geometry" />
        </mxCell>
        <mxCell id="ZTE7Tmf9JD90eNvFtAKK-19" value="result = &quot;Pareggio&quot;" style="whiteSpace=wrap;html=1;strokeWidth=2;" vertex="1" parent="1">
          <mxGeometry x="360" y="620" width="120" height="60" as="geometry" />
        </mxCell>
      </root>
    </mxGraphModel>
  </diagram>
  <diagram id="07hj129NmkBoIZGhZb3u" name="Pagina-5">
    <mxGraphModel dx="1434" dy="772" grid="1" gridSize="10" guides="1" tooltips="1" connect="1" arrows="1" fold="1" page="1" pageScale="1" pageWidth="1169" pageHeight="827" math="0" shadow="0">
      <root>
        <mxCell id="0" />
        <mxCell id="1" parent="0" />
        <mxCell id="wtt8ulzfSXNiZlKxMiUb-1" value="Object" style="swimlane;fontStyle=1;align=center;verticalAlign=top;childLayout=stackLayout;horizontal=1;startSize=26;horizontalStack=0;resizeParent=1;resizeParentMax=0;resizeLast=0;collapsible=1;marginBottom=0;whiteSpace=wrap;html=1;" vertex="1" parent="1">
          <mxGeometry x="520" y="50" width="160" height="60" as="geometry" />
        </mxCell>
        <mxCell id="wtt8ulzfSXNiZlKxMiUb-3" value="" style="line;strokeWidth=1;fillColor=none;align=left;verticalAlign=middle;spacingTop=-1;spacingLeft=3;spacingRight=3;rotatable=0;labelPosition=right;points=[];portConstraint=eastwest;strokeColor=inherit;" vertex="1" parent="wtt8ulzfSXNiZlKxMiUb-1">
          <mxGeometry y="26" width="160" height="8" as="geometry" />
        </mxCell>
        <mxCell id="wtt8ulzfSXNiZlKxMiUb-4" value="# method(type): type" style="text;strokeColor=none;fillColor=none;align=left;verticalAlign=top;spacingLeft=4;spacingRight=4;overflow=hidden;rotatable=0;points=[[0,0.5],[1,0.5]];portConstraint=eastwest;whiteSpace=wrap;html=1;" vertex="1" parent="wtt8ulzfSXNiZlKxMiUb-1">
          <mxGeometry y="34" width="160" height="26" as="geometry" />
        </mxCell>
        <mxCell id="wtt8ulzfSXNiZlKxMiUb-5" value="Veicolo" style="swimlane;fontStyle=1;align=center;verticalAlign=top;childLayout=stackLayout;horizontal=1;startSize=26;horizontalStack=0;resizeParent=1;resizeParentMax=0;resizeLast=0;collapsible=1;marginBottom=0;whiteSpace=wrap;html=1;" vertex="1" parent="1">
          <mxGeometry x="520" y="200" width="160" height="112" as="geometry" />
        </mxCell>
        <mxCell id="wtt8ulzfSXNiZlKxMiUb-6" value="- marca, modello: String" style="text;strokeColor=none;fillColor=none;align=left;verticalAlign=top;spacingLeft=4;spacingRight=4;overflow=hidden;rotatable=0;points=[[0,0.5],[1,0.5]];portConstraint=eastwest;whiteSpace=wrap;html=1;" vertex="1" parent="wtt8ulzfSXNiZlKxMiUb-5">
          <mxGeometry y="26" width="160" height="26" as="geometry" />
        </mxCell>
        <mxCell id="wtt8ulzfSXNiZlKxMiUb-11" value="- cilindrata, prezzo: int" style="text;strokeColor=none;fillColor=none;align=left;verticalAlign=top;spacingLeft=4;spacingRight=4;overflow=hidden;rotatable=0;points=[[0,0.5],[1,0.5]];portConstraint=eastwest;whiteSpace=wrap;html=1;" vertex="1" parent="wtt8ulzfSXNiZlKxMiUb-5">
          <mxGeometry y="52" width="160" height="26" as="geometry" />
        </mxCell>
        <mxCell id="wtt8ulzfSXNiZlKxMiUb-7" value="" style="line;strokeWidth=1;fillColor=none;align=left;verticalAlign=middle;spacingTop=-1;spacingLeft=3;spacingRight=3;rotatable=0;labelPosition=right;points=[];portConstraint=eastwest;strokeColor=inherit;" vertex="1" parent="wtt8ulzfSXNiZlKxMiUb-5">
          <mxGeometry y="78" width="160" height="8" as="geometry" />
        </mxCell>
        <mxCell id="wtt8ulzfSXNiZlKxMiUb-8" value="+ getters, setters, toString" style="text;strokeColor=none;fillColor=none;align=left;verticalAlign=top;spacingLeft=4;spacingRight=4;overflow=hidden;rotatable=0;points=[[0,0.5],[1,0.5]];portConstraint=eastwest;whiteSpace=wrap;html=1;" vertex="1" parent="wtt8ulzfSXNiZlKxMiUb-5">
          <mxGeometry y="86" width="160" height="26" as="geometry" />
        </mxCell>
        <mxCell id="wtt8ulzfSXNiZlKxMiUb-10" value="Extends" style="endArrow=block;endSize=16;endFill=0;html=1;rounded=0;" edge="1" parent="1" source="wtt8ulzfSXNiZlKxMiUb-5" target="wtt8ulzfSXNiZlKxMiUb-1">
          <mxGeometry width="160" relative="1" as="geometry">
            <mxPoint x="500" y="400" as="sourcePoint" />
            <mxPoint x="660" y="400" as="targetPoint" />
          </mxGeometry>
        </mxCell>
        <mxCell id="wtt8ulzfSXNiZlKxMiUb-12" value="Automobile" style="swimlane;fontStyle=1;align=center;verticalAlign=top;childLayout=stackLayout;horizontal=1;startSize=26;horizontalStack=0;resizeParent=1;resizeParentMax=0;resizeLast=0;collapsible=1;marginBottom=0;whiteSpace=wrap;html=1;" vertex="1" parent="1">
          <mxGeometry x="340" y="370" width="160" height="60" as="geometry" />
        </mxCell>
        <mxCell id="wtt8ulzfSXNiZlKxMiUb-14" value="" style="line;strokeWidth=1;fillColor=none;align=left;verticalAlign=middle;spacingTop=-1;spacingLeft=3;spacingRight=3;rotatable=0;labelPosition=right;points=[];portConstraint=eastwest;strokeColor=inherit;" vertex="1" parent="wtt8ulzfSXNiZlKxMiUb-12">
          <mxGeometry y="26" width="160" height="8" as="geometry" />
        </mxCell>
        <mxCell id="wtt8ulzfSXNiZlKxMiUb-15" value="toString" style="text;strokeColor=none;fillColor=none;align=left;verticalAlign=top;spacingLeft=4;spacingRight=4;overflow=hidden;rotatable=0;points=[[0,0.5],[1,0.5]];portConstraint=eastwest;whiteSpace=wrap;html=1;" vertex="1" parent="wtt8ulzfSXNiZlKxMiUb-12">
          <mxGeometry y="34" width="160" height="26" as="geometry" />
        </mxCell>
        <mxCell id="wtt8ulzfSXNiZlKxMiUb-16" value="Extends" style="endArrow=block;endSize=16;endFill=0;html=1;rounded=0;" edge="1" parent="1" source="wtt8ulzfSXNiZlKxMiUb-12" target="wtt8ulzfSXNiZlKxMiUb-5">
          <mxGeometry width="160" relative="1" as="geometry">
            <mxPoint x="500" y="400" as="sourcePoint" />
            <mxPoint x="660" y="400" as="targetPoint" />
          </mxGeometry>
        </mxCell>
        <mxCell id="wtt8ulzfSXNiZlKxMiUb-17" value="Moto" style="swimlane;fontStyle=1;align=center;verticalAlign=top;childLayout=stackLayout;horizontal=1;startSize=26;horizontalStack=0;resizeParent=1;resizeParentMax=0;resizeLast=0;collapsible=1;marginBottom=0;whiteSpace=wrap;html=1;" vertex="1" parent="1">
          <mxGeometry x="630" y="370" width="160" height="60" as="geometry" />
        </mxCell>
        <mxCell id="wtt8ulzfSXNiZlKxMiUb-18" value="" style="line;strokeWidth=1;fillColor=none;align=left;verticalAlign=middle;spacingTop=-1;spacingLeft=3;spacingRight=3;rotatable=0;labelPosition=right;points=[];portConstraint=eastwest;strokeColor=inherit;" vertex="1" parent="wtt8ulzfSXNiZlKxMiUb-17">
          <mxGeometry y="26" width="160" height="8" as="geometry" />
        </mxCell>
        <mxCell id="wtt8ulzfSXNiZlKxMiUb-19" value="toString" style="text;strokeColor=none;fillColor=none;align=left;verticalAlign=top;spacingLeft=4;spacingRight=4;overflow=hidden;rotatable=0;points=[[0,0.5],[1,0.5]];portConstraint=eastwest;whiteSpace=wrap;html=1;" vertex="1" parent="wtt8ulzfSXNiZlKxMiUb-17">
          <mxGeometry y="34" width="160" height="26" as="geometry" />
        </mxCell>
        <mxCell id="wtt8ulzfSXNiZlKxMiUb-20" value="Extends" style="endArrow=block;endSize=16;endFill=0;html=1;rounded=0;" edge="1" parent="1" source="wtt8ulzfSXNiZlKxMiUb-17" target="wtt8ulzfSXNiZlKxMiUb-5">
          <mxGeometry width="160" relative="1" as="geometry">
            <mxPoint x="468" y="380" as="sourcePoint" />
            <mxPoint x="540" y="322" as="targetPoint" />
          </mxGeometry>
        </mxCell>
        <mxCell id="wtt8ulzfSXNiZlKxMiUb-21" value="AutoElettrica" style="swimlane;fontStyle=1;align=center;verticalAlign=top;childLayout=stackLayout;horizontal=1;startSize=26;horizontalStack=0;resizeParent=1;resizeParentMax=0;resizeLast=0;collapsible=1;marginBottom=0;whiteSpace=wrap;html=1;" vertex="1" parent="1">
          <mxGeometry x="340" y="490" width="160" height="86" as="geometry" />
        </mxCell>
        <mxCell id="wtt8ulzfSXNiZlKxMiUb-25" value="- durataBatteria: int" style="text;strokeColor=none;fillColor=none;align=left;verticalAlign=top;spacingLeft=4;spacingRight=4;overflow=hidden;rotatable=0;points=[[0,0.5],[1,0.5]];portConstraint=eastwest;whiteSpace=wrap;html=1;" vertex="1" parent="wtt8ulzfSXNiZlKxMiUb-21">
          <mxGeometry y="26" width="160" height="26" as="geometry" />
        </mxCell>
        <mxCell id="wtt8ulzfSXNiZlKxMiUb-22" value="" style="line;strokeWidth=1;fillColor=none;align=left;verticalAlign=middle;spacingTop=-1;spacingLeft=3;spacingRight=3;rotatable=0;labelPosition=right;points=[];portConstraint=eastwest;strokeColor=inherit;" vertex="1" parent="wtt8ulzfSXNiZlKxMiUb-21">
          <mxGeometry y="52" width="160" height="8" as="geometry" />
        </mxCell>
        <mxCell id="wtt8ulzfSXNiZlKxMiUb-23" value="toString" style="text;strokeColor=none;fillColor=none;align=left;verticalAlign=top;spacingLeft=4;spacingRight=4;overflow=hidden;rotatable=0;points=[[0,0.5],[1,0.5]];portConstraint=eastwest;whiteSpace=wrap;html=1;" vertex="1" parent="wtt8ulzfSXNiZlKxMiUb-21">
          <mxGeometry y="60" width="160" height="26" as="geometry" />
        </mxCell>
        <mxCell id="wtt8ulzfSXNiZlKxMiUb-24" value="Extends" style="endArrow=block;endSize=16;endFill=0;html=1;rounded=0;" edge="1" parent="1" source="wtt8ulzfSXNiZlKxMiUb-21" target="wtt8ulzfSXNiZlKxMiUb-12">
          <mxGeometry width="160" relative="1" as="geometry">
            <mxPoint x="468" y="380" as="sourcePoint" />
            <mxPoint x="540" y="322" as="targetPoint" />
          </mxGeometry>
        </mxCell>
        <mxCell id="wtt8ulzfSXNiZlKxMiUb-26" value="Registro" style="swimlane;fontStyle=1;align=center;verticalAlign=top;childLayout=stackLayout;horizontal=1;startSize=26;horizontalStack=0;resizeParent=1;resizeParentMax=0;resizeLast=0;collapsible=1;marginBottom=0;whiteSpace=wrap;html=1;" vertex="1" parent="1">
          <mxGeometry x="910" y="200" width="160" height="86" as="geometry" />
        </mxCell>
        <mxCell id="wtt8ulzfSXNiZlKxMiUb-27" value="+ veicoli: Veicolo[]" style="text;strokeColor=none;fillColor=none;align=left;verticalAlign=top;spacingLeft=4;spacingRight=4;overflow=hidden;rotatable=0;points=[[0,0.5],[1,0.5]];portConstraint=eastwest;whiteSpace=wrap;html=1;" vertex="1" parent="wtt8ulzfSXNiZlKxMiUb-26">
          <mxGeometry y="26" width="160" height="26" as="geometry" />
        </mxCell>
        <mxCell id="wtt8ulzfSXNiZlKxMiUb-28" value="" style="line;strokeWidth=1;fillColor=none;align=left;verticalAlign=middle;spacingTop=-1;spacingLeft=3;spacingRight=3;rotatable=0;labelPosition=right;points=[];portConstraint=eastwest;strokeColor=inherit;" vertex="1" parent="wtt8ulzfSXNiZlKxMiUb-26">
          <mxGeometry y="52" width="160" height="8" as="geometry" />
        </mxCell>
        <mxCell id="wtt8ulzfSXNiZlKxMiUb-29" value="+ method(type): type" style="text;strokeColor=none;fillColor=none;align=left;verticalAlign=top;spacingLeft=4;spacingRight=4;overflow=hidden;rotatable=0;points=[[0,0.5],[1,0.5]];portConstraint=eastwest;whiteSpace=wrap;html=1;" vertex="1" parent="wtt8ulzfSXNiZlKxMiUb-26">
          <mxGeometry y="60" width="160" height="26" as="geometry" />
        </mxCell>
      </root>
    </mxGraphModel>
  </diagram>
  <diagram id="GXa_y0kIpy1hr3_jQ2R2" name="Pagina-6">
    <mxGraphModel dx="1434" dy="772" grid="1" gridSize="10" guides="1" tooltips="1" connect="1" arrows="1" fold="1" page="1" pageScale="1" pageWidth="1169" pageHeight="827" math="0" shadow="0">
      <root>
        <mxCell id="0" />
        <mxCell id="1" parent="0" />
      </root>
    </mxGraphModel>
  </diagram>
  <diagram id="5unuTP-hbAqc2NhLuxdo" name="Pagina-7">
    <mxGraphModel dx="1434" dy="772" grid="1" gridSize="10" guides="1" tooltips="1" connect="1" arrows="1" fold="1" page="1" pageScale="1" pageWidth="1169" pageHeight="827" math="0" shadow="0">
      <root>
        <mxCell id="0" />
        <mxCell id="1" parent="0" />
        <mxCell id="q1J1HGMDhA3Q6L7iaoLK-29" value="" style="swimlane;startSize=0;" vertex="1" parent="1">
          <mxGeometry x="780" y="290" width="210" height="220" as="geometry" />
        </mxCell>
        <mxCell id="q1J1HGMDhA3Q6L7iaoLK-3" style="edgeStyle=orthogonalEdgeStyle;rounded=0;orthogonalLoop=1;jettySize=auto;html=1;exitX=0;exitY=0.5;exitDx=0;exitDy=0;" edge="1" parent="1" source="q1J1HGMDhA3Q6L7iaoLK-1" target="q1J1HGMDhA3Q6L7iaoLK-2">
          <mxGeometry relative="1" as="geometry" />
        </mxCell>
        <mxCell id="q1J1HGMDhA3Q6L7iaoLK-1" value="tipi primitivi" style="rounded=0;whiteSpace=wrap;html=1;" vertex="1" parent="1">
          <mxGeometry x="230" y="90" width="120" height="60" as="geometry" />
        </mxCell>
        <mxCell id="q1J1HGMDhA3Q6L7iaoLK-2" value="" style="dashed=0;outlineConnect=0;html=1;align=center;labelPosition=center;verticalLabelPosition=bottom;verticalAlign=top;shape=mxgraph.weblogos.java" vertex="1" parent="1">
          <mxGeometry x="100" y="120" width="34.4" height="65" as="geometry" />
        </mxCell>
        <mxCell id="q1J1HGMDhA3Q6L7iaoLK-5" style="edgeStyle=orthogonalEdgeStyle;rounded=0;orthogonalLoop=1;jettySize=auto;html=1;exitX=0;exitY=0.5;exitDx=0;exitDy=0;" edge="1" parent="1" source="q1J1HGMDhA3Q6L7iaoLK-4" target="q1J1HGMDhA3Q6L7iaoLK-2">
          <mxGeometry relative="1" as="geometry">
            <Array as="points">
              <mxPoint x="230" y="220" />
              <mxPoint x="117" y="220" />
            </Array>
          </mxGeometry>
        </mxCell>
        <mxCell id="q1J1HGMDhA3Q6L7iaoLK-4" value="tipi complessi" style="rounded=0;whiteSpace=wrap;html=1;" vertex="1" parent="1">
          <mxGeometry x="230" y="190" width="120" height="60" as="geometry" />
        </mxCell>
        <mxCell id="q1J1HGMDhA3Q6L7iaoLK-6" value="oggetti" style="whiteSpace=wrap;html=1;aspect=fixed;" vertex="1" parent="1">
          <mxGeometry x="790" y="305" width="190" height="190" as="geometry" />
        </mxCell>
        <mxCell id="q1J1HGMDhA3Q6L7iaoLK-7" value="Assets" style="childLayout=tableLayout;recursiveResize=0;strokeColor=#98bf21;fillColor=#A7C942;shadow=1;" vertex="1" parent="1">
          <mxGeometry x="800" y="325" width="170" height="60" as="geometry" />
        </mxCell>
        <mxCell id="q1J1HGMDhA3Q6L7iaoLK-8" style="shape=tableRow;horizontal=0;startSize=0;swimlaneHead=0;swimlaneBody=0;top=0;left=0;bottom=0;right=0;dropTarget=0;collapsible=0;recursiveResize=0;expand=0;fontStyle=0;strokeColor=inherit;fillColor=#ffffff;" vertex="1" parent="q1J1HGMDhA3Q6L7iaoLK-7">
          <mxGeometry width="170" height="12" as="geometry" />
        </mxCell>
        <mxCell id="q1J1HGMDhA3Q6L7iaoLK-9" value="Title 1" style="connectable=0;recursiveResize=0;strokeColor=inherit;fillColor=#A7C942;align=center;fontStyle=1;fontColor=#FFFFFF;html=1;" vertex="1" parent="q1J1HGMDhA3Q6L7iaoLK-8">
          <mxGeometry width="56" height="12" as="geometry">
            <mxRectangle width="56" height="12" as="alternateBounds" />
          </mxGeometry>
        </mxCell>
        <mxCell id="q1J1HGMDhA3Q6L7iaoLK-10" value="Title 2" style="connectable=0;recursiveResize=0;strokeColor=inherit;fillColor=#A7C942;align=center;fontStyle=1;fontColor=#FFFFFF;html=1;" vertex="1" parent="q1J1HGMDhA3Q6L7iaoLK-8">
          <mxGeometry x="56" width="58" height="12" as="geometry">
            <mxRectangle width="58" height="12" as="alternateBounds" />
          </mxGeometry>
        </mxCell>
        <mxCell id="q1J1HGMDhA3Q6L7iaoLK-11" value="Title 3" style="connectable=0;recursiveResize=0;strokeColor=inherit;fillColor=#A7C942;align=center;fontStyle=1;fontColor=#FFFFFF;html=1;" vertex="1" parent="q1J1HGMDhA3Q6L7iaoLK-8">
          <mxGeometry x="114" width="56" height="12" as="geometry">
            <mxRectangle width="56" height="12" as="alternateBounds" />
          </mxGeometry>
        </mxCell>
        <mxCell id="q1J1HGMDhA3Q6L7iaoLK-12" value="" style="shape=tableRow;horizontal=0;startSize=0;swimlaneHead=0;swimlaneBody=0;top=0;left=0;bottom=0;right=0;dropTarget=0;collapsible=0;recursiveResize=0;expand=0;fontStyle=0;strokeColor=inherit;fillColor=#ffffff;" vertex="1" parent="q1J1HGMDhA3Q6L7iaoLK-7">
          <mxGeometry y="12" width="170" height="12" as="geometry" />
        </mxCell>
        <mxCell id="q1J1HGMDhA3Q6L7iaoLK-13" value="Value 1" style="connectable=0;recursiveResize=0;strokeColor=inherit;fillColor=inherit;align=center;whiteSpace=wrap;html=1;" vertex="1" parent="q1J1HGMDhA3Q6L7iaoLK-12">
          <mxGeometry width="56" height="12" as="geometry">
            <mxRectangle width="56" height="12" as="alternateBounds" />
          </mxGeometry>
        </mxCell>
        <mxCell id="q1J1HGMDhA3Q6L7iaoLK-14" value="Value 2" style="connectable=0;recursiveResize=0;strokeColor=inherit;fillColor=inherit;align=center;whiteSpace=wrap;html=1;" vertex="1" parent="q1J1HGMDhA3Q6L7iaoLK-12">
          <mxGeometry x="56" width="58" height="12" as="geometry">
            <mxRectangle width="58" height="12" as="alternateBounds" />
          </mxGeometry>
        </mxCell>
        <mxCell id="q1J1HGMDhA3Q6L7iaoLK-15" value="Value 3" style="connectable=0;recursiveResize=0;strokeColor=inherit;fillColor=inherit;align=center;whiteSpace=wrap;html=1;" vertex="1" parent="q1J1HGMDhA3Q6L7iaoLK-12">
          <mxGeometry x="114" width="56" height="12" as="geometry">
            <mxRectangle width="56" height="12" as="alternateBounds" />
          </mxGeometry>
        </mxCell>
        <mxCell id="q1J1HGMDhA3Q6L7iaoLK-16" value="" style="shape=tableRow;horizontal=0;startSize=0;swimlaneHead=0;swimlaneBody=0;top=0;left=0;bottom=0;right=0;dropTarget=0;collapsible=0;recursiveResize=0;expand=0;fontStyle=1;strokeColor=inherit;fillColor=#EAF2D3;" vertex="1" parent="q1J1HGMDhA3Q6L7iaoLK-7">
          <mxGeometry y="24" width="170" height="12" as="geometry" />
        </mxCell>
        <mxCell id="q1J1HGMDhA3Q6L7iaoLK-17" value="Value 4" style="connectable=0;recursiveResize=0;strokeColor=inherit;fillColor=inherit;whiteSpace=wrap;html=1;" vertex="1" parent="q1J1HGMDhA3Q6L7iaoLK-16">
          <mxGeometry width="56" height="12" as="geometry">
            <mxRectangle width="56" height="12" as="alternateBounds" />
          </mxGeometry>
        </mxCell>
        <mxCell id="q1J1HGMDhA3Q6L7iaoLK-18" value="Value 5" style="connectable=0;recursiveResize=0;strokeColor=inherit;fillColor=inherit;whiteSpace=wrap;html=1;" vertex="1" parent="q1J1HGMDhA3Q6L7iaoLK-16">
          <mxGeometry x="56" width="58" height="12" as="geometry">
            <mxRectangle width="58" height="12" as="alternateBounds" />
          </mxGeometry>
        </mxCell>
        <mxCell id="q1J1HGMDhA3Q6L7iaoLK-19" value="Value 6" style="connectable=0;recursiveResize=0;strokeColor=inherit;fillColor=inherit;whiteSpace=wrap;html=1;" vertex="1" parent="q1J1HGMDhA3Q6L7iaoLK-16">
          <mxGeometry x="114" width="56" height="12" as="geometry">
            <mxRectangle width="56" height="12" as="alternateBounds" />
          </mxGeometry>
        </mxCell>
        <mxCell id="q1J1HGMDhA3Q6L7iaoLK-20" value="" style="shape=tableRow;horizontal=0;startSize=0;swimlaneHead=0;swimlaneBody=0;top=0;left=0;bottom=0;right=0;dropTarget=0;collapsible=0;recursiveResize=0;expand=0;fontStyle=0;strokeColor=inherit;fillColor=#ffffff;" vertex="1" parent="q1J1HGMDhA3Q6L7iaoLK-7">
          <mxGeometry y="36" width="170" height="12" as="geometry" />
        </mxCell>
        <mxCell id="q1J1HGMDhA3Q6L7iaoLK-21" value="Value 7" style="connectable=0;recursiveResize=0;strokeColor=inherit;fillColor=inherit;fontStyle=0;align=center;whiteSpace=wrap;html=1;" vertex="1" parent="q1J1HGMDhA3Q6L7iaoLK-20">
          <mxGeometry width="56" height="12" as="geometry">
            <mxRectangle width="56" height="12" as="alternateBounds" />
          </mxGeometry>
        </mxCell>
        <mxCell id="q1J1HGMDhA3Q6L7iaoLK-22" value="Value 8" style="connectable=0;recursiveResize=0;strokeColor=inherit;fillColor=inherit;fontStyle=0;align=center;whiteSpace=wrap;html=1;" vertex="1" parent="q1J1HGMDhA3Q6L7iaoLK-20">
          <mxGeometry x="56" width="58" height="12" as="geometry">
            <mxRectangle width="58" height="12" as="alternateBounds" />
          </mxGeometry>
        </mxCell>
        <mxCell id="q1J1HGMDhA3Q6L7iaoLK-23" value="Value 9" style="connectable=0;recursiveResize=0;strokeColor=inherit;fillColor=inherit;fontStyle=0;align=center;whiteSpace=wrap;html=1;" vertex="1" parent="q1J1HGMDhA3Q6L7iaoLK-20">
          <mxGeometry x="114" width="56" height="12" as="geometry">
            <mxRectangle width="56" height="12" as="alternateBounds" />
          </mxGeometry>
        </mxCell>
        <mxCell id="q1J1HGMDhA3Q6L7iaoLK-24" value="" style="shape=tableRow;horizontal=0;startSize=0;swimlaneHead=0;swimlaneBody=0;top=0;left=0;bottom=0;right=0;dropTarget=0;collapsible=0;recursiveResize=0;expand=0;fontStyle=1;strokeColor=inherit;fillColor=#EAF2D3;" vertex="1" parent="q1J1HGMDhA3Q6L7iaoLK-7">
          <mxGeometry y="48" width="170" height="12" as="geometry" />
        </mxCell>
        <mxCell id="q1J1HGMDhA3Q6L7iaoLK-25" value="Value 10" style="connectable=0;recursiveResize=0;strokeColor=inherit;fillColor=inherit;whiteSpace=wrap;html=1;" vertex="1" parent="q1J1HGMDhA3Q6L7iaoLK-24">
          <mxGeometry width="56" height="12" as="geometry">
            <mxRectangle width="56" height="12" as="alternateBounds" />
          </mxGeometry>
        </mxCell>
        <mxCell id="q1J1HGMDhA3Q6L7iaoLK-26" value="Value 11" style="connectable=0;recursiveResize=0;strokeColor=inherit;fillColor=inherit;whiteSpace=wrap;html=1;" vertex="1" parent="q1J1HGMDhA3Q6L7iaoLK-24">
          <mxGeometry x="56" width="58" height="12" as="geometry">
            <mxRectangle width="58" height="12" as="alternateBounds" />
          </mxGeometry>
        </mxCell>
        <mxCell id="q1J1HGMDhA3Q6L7iaoLK-27" value="Value 12" style="connectable=0;recursiveResize=0;strokeColor=inherit;fillColor=inherit;whiteSpace=wrap;html=1;" vertex="1" parent="q1J1HGMDhA3Q6L7iaoLK-24">
          <mxGeometry x="114" width="56" height="12" as="geometry">
            <mxRectangle width="56" height="12" as="alternateBounds" />
          </mxGeometry>
        </mxCell>
        <mxCell id="q1J1HGMDhA3Q6L7iaoLK-28" value="" style="image;aspect=fixed;html=1;points=[];align=center;fontSize=12;image=img/lib/azure2/integration/Logic_Apps.svg;" vertex="1" parent="1">
          <mxGeometry x="839.9" y="415" width="90.19" height="70" as="geometry" />
        </mxCell>
        <mxCell id="q1J1HGMDhA3Q6L7iaoLK-31" value="" style="shape=image;verticalLabelPosition=bottom;labelBackgroundColor=default;verticalAlign=top;aspect=fixed;imageAspect=0;image=https://upload.wikimedia.org/wikipedia/commons/thumb/b/b5/ModelViewControllerDiagram2.svg/310px-ModelViewControllerDiagram2.svg.png;" vertex="1" parent="1">
          <mxGeometry x="710" y="90" width="370" height="169.48" as="geometry" />
        </mxCell>
        <mxCell id="q1J1HGMDhA3Q6L7iaoLK-32" value="" style="shape=cylinder3;whiteSpace=wrap;html=1;boundedLbl=1;backgroundOutline=1;size=15;" vertex="1" parent="1">
          <mxGeometry x="1090" y="195" width="60" height="80" as="geometry" />
        </mxCell>
        <mxCell id="q1J1HGMDhA3Q6L7iaoLK-38" value="libri" style="shape=table;startSize=30;container=1;collapsible=1;childLayout=tableLayout;fixedRows=1;rowLines=0;fontStyle=1;align=center;resizeLast=1;html=1;" vertex="1" parent="1">
          <mxGeometry x="1030" y="290" width="180" height="150" as="geometry" />
        </mxCell>
        <mxCell id="q1J1HGMDhA3Q6L7iaoLK-39" value="" style="shape=tableRow;horizontal=0;startSize=0;swimlaneHead=0;swimlaneBody=0;fillColor=none;collapsible=0;dropTarget=0;points=[[0,0.5],[1,0.5]];portConstraint=eastwest;top=0;left=0;right=0;bottom=1;" vertex="1" parent="q1J1HGMDhA3Q6L7iaoLK-38">
          <mxGeometry y="30" width="180" height="30" as="geometry" />
        </mxCell>
        <mxCell id="q1J1HGMDhA3Q6L7iaoLK-40" value="PK" style="shape=partialRectangle;connectable=0;fillColor=none;top=0;left=0;bottom=0;right=0;fontStyle=1;overflow=hidden;whiteSpace=wrap;html=1;" vertex="1" parent="q1J1HGMDhA3Q6L7iaoLK-39">
          <mxGeometry width="30" height="30" as="geometry">
            <mxRectangle width="30" height="30" as="alternateBounds" />
          </mxGeometry>
        </mxCell>
        <mxCell id="q1J1HGMDhA3Q6L7iaoLK-41" value="UniqueID" style="shape=partialRectangle;connectable=0;fillColor=none;top=0;left=0;bottom=0;right=0;align=left;spacingLeft=6;fontStyle=5;overflow=hidden;whiteSpace=wrap;html=1;" vertex="1" parent="q1J1HGMDhA3Q6L7iaoLK-39">
          <mxGeometry x="30" width="150" height="30" as="geometry">
            <mxRectangle width="150" height="30" as="alternateBounds" />
          </mxGeometry>
        </mxCell>
        <mxCell id="q1J1HGMDhA3Q6L7iaoLK-42" value="" style="shape=tableRow;horizontal=0;startSize=0;swimlaneHead=0;swimlaneBody=0;fillColor=none;collapsible=0;dropTarget=0;points=[[0,0.5],[1,0.5]];portConstraint=eastwest;top=0;left=0;right=0;bottom=0;" vertex="1" parent="q1J1HGMDhA3Q6L7iaoLK-38">
          <mxGeometry y="60" width="180" height="30" as="geometry" />
        </mxCell>
        <mxCell id="q1J1HGMDhA3Q6L7iaoLK-43" value="" style="shape=partialRectangle;connectable=0;fillColor=none;top=0;left=0;bottom=0;right=0;editable=1;overflow=hidden;whiteSpace=wrap;html=1;" vertex="1" parent="q1J1HGMDhA3Q6L7iaoLK-42">
          <mxGeometry width="30" height="30" as="geometry">
            <mxRectangle width="30" height="30" as="alternateBounds" />
          </mxGeometry>
        </mxCell>
        <mxCell id="q1J1HGMDhA3Q6L7iaoLK-44" value="Row 1" style="shape=partialRectangle;connectable=0;fillColor=none;top=0;left=0;bottom=0;right=0;align=left;spacingLeft=6;overflow=hidden;whiteSpace=wrap;html=1;" vertex="1" parent="q1J1HGMDhA3Q6L7iaoLK-42">
          <mxGeometry x="30" width="150" height="30" as="geometry">
            <mxRectangle width="150" height="30" as="alternateBounds" />
          </mxGeometry>
        </mxCell>
        <mxCell id="q1J1HGMDhA3Q6L7iaoLK-45" value="" style="shape=tableRow;horizontal=0;startSize=0;swimlaneHead=0;swimlaneBody=0;fillColor=none;collapsible=0;dropTarget=0;points=[[0,0.5],[1,0.5]];portConstraint=eastwest;top=0;left=0;right=0;bottom=0;" vertex="1" parent="q1J1HGMDhA3Q6L7iaoLK-38">
          <mxGeometry y="90" width="180" height="30" as="geometry" />
        </mxCell>
        <mxCell id="q1J1HGMDhA3Q6L7iaoLK-46" value="" style="shape=partialRectangle;connectable=0;fillColor=none;top=0;left=0;bottom=0;right=0;editable=1;overflow=hidden;whiteSpace=wrap;html=1;" vertex="1" parent="q1J1HGMDhA3Q6L7iaoLK-45">
          <mxGeometry width="30" height="30" as="geometry">
            <mxRectangle width="30" height="30" as="alternateBounds" />
          </mxGeometry>
        </mxCell>
        <mxCell id="q1J1HGMDhA3Q6L7iaoLK-47" value="Row 2" style="shape=partialRectangle;connectable=0;fillColor=none;top=0;left=0;bottom=0;right=0;align=left;spacingLeft=6;overflow=hidden;whiteSpace=wrap;html=1;" vertex="1" parent="q1J1HGMDhA3Q6L7iaoLK-45">
          <mxGeometry x="30" width="150" height="30" as="geometry">
            <mxRectangle width="150" height="30" as="alternateBounds" />
          </mxGeometry>
        </mxCell>
        <mxCell id="q1J1HGMDhA3Q6L7iaoLK-48" value="" style="shape=tableRow;horizontal=0;startSize=0;swimlaneHead=0;swimlaneBody=0;fillColor=none;collapsible=0;dropTarget=0;points=[[0,0.5],[1,0.5]];portConstraint=eastwest;top=0;left=0;right=0;bottom=0;" vertex="1" parent="q1J1HGMDhA3Q6L7iaoLK-38">
          <mxGeometry y="120" width="180" height="30" as="geometry" />
        </mxCell>
        <mxCell id="q1J1HGMDhA3Q6L7iaoLK-49" value="" style="shape=partialRectangle;connectable=0;fillColor=none;top=0;left=0;bottom=0;right=0;editable=1;overflow=hidden;whiteSpace=wrap;html=1;" vertex="1" parent="q1J1HGMDhA3Q6L7iaoLK-48">
          <mxGeometry width="30" height="30" as="geometry">
            <mxRectangle width="30" height="30" as="alternateBounds" />
          </mxGeometry>
        </mxCell>
        <mxCell id="q1J1HGMDhA3Q6L7iaoLK-50" value="Row 3" style="shape=partialRectangle;connectable=0;fillColor=none;top=0;left=0;bottom=0;right=0;align=left;spacingLeft=6;overflow=hidden;whiteSpace=wrap;html=1;" vertex="1" parent="q1J1HGMDhA3Q6L7iaoLK-48">
          <mxGeometry x="30" width="150" height="30" as="geometry">
            <mxRectangle width="150" height="30" as="alternateBounds" />
          </mxGeometry>
        </mxCell>
        <mxCell id="q1J1HGMDhA3Q6L7iaoLK-52" value="" style="shape=mxgraph.cisco.storage.tape_array;html=1;pointerEvents=1;dashed=0;fillColor=#036897;strokeColor=#ffffff;strokeWidth=2;verticalLabelPosition=bottom;verticalAlign=top;align=center;outlineConnect=0;" vertex="1" parent="1">
          <mxGeometry x="120" y="309" width="120" height="171" as="geometry" />
        </mxCell>
        <mxCell id="q1J1HGMDhA3Q6L7iaoLK-53" value="List" style="rounded=0;whiteSpace=wrap;html=1;fillColor=#dae8fc;strokeColor=#6c8ebf;" vertex="1" parent="1">
          <mxGeometry x="280" y="309" width="120" height="41" as="geometry" />
        </mxCell>
        <mxCell id="q1J1HGMDhA3Q6L7iaoLK-54" value="Set" style="rounded=0;whiteSpace=wrap;html=1;fillColor=#dae8fc;strokeColor=#6c8ebf;" vertex="1" parent="1">
          <mxGeometry x="280" y="360" width="120" height="41" as="geometry" />
        </mxCell>
        <mxCell id="q1J1HGMDhA3Q6L7iaoLK-55" value="Queue" style="rounded=0;whiteSpace=wrap;html=1;fillColor=#dae8fc;strokeColor=#6c8ebf;" vertex="1" parent="1">
          <mxGeometry x="280" y="410" width="120" height="41" as="geometry" />
        </mxCell>
        <mxCell id="q1J1HGMDhA3Q6L7iaoLK-56" value="Map" style="rounded=0;whiteSpace=wrap;html=1;fillColor=#f8cecc;strokeColor=#b85450;" vertex="1" parent="1">
          <mxGeometry x="280" y="460" width="120" height="41" as="geometry" />
        </mxCell>
      </root>
    </mxGraphModel>
  </diagram>
  <diagram id="OoL3HBxLQB1c431ixsbg" name="Pagina-8">
    <mxGraphModel dx="1434" dy="772" grid="1" gridSize="10" guides="1" tooltips="1" connect="1" arrows="1" fold="1" page="1" pageScale="1" pageWidth="1169" pageHeight="827" math="0" shadow="0">
      <root>
        <mxCell id="0" />
        <mxCell id="1" parent="0" />
        <mxCell id="AQWLIPLRf6avw7v2R2J1-1" value="pari e dispari" style="text;strokeColor=none;fillColor=none;html=1;fontSize=24;fontStyle=1;verticalAlign=middle;align=center;" vertex="1" parent="1">
          <mxGeometry x="70" y="40" width="250" height="50" as="geometry" />
        </mxCell>
        <mxCell id="AQWLIPLRf6avw7v2R2J1-4" value="&lt;ul&gt;&lt;li&gt;umano sceglie pari o dispari&lt;/li&gt;&lt;li&gt;macchina != umano&lt;/li&gt;&lt;li&gt;umano quante dita&lt;/li&gt;&lt;li&gt;macchina random dita&lt;/li&gt;&lt;li&gt;result = umano + macchina&lt;/li&gt;&lt;li&gt;result = pari/dispari&lt;/li&gt;&lt;li&gt;result = vince umano/macchina&lt;/li&gt;&lt;/ul&gt;" style="text;strokeColor=none;fillColor=none;html=1;whiteSpace=wrap;verticalAlign=middle;overflow=hidden;" vertex="1" parent="1">
          <mxGeometry x="120" y="110" width="260" height="170" as="geometry" />
        </mxCell>
        <mxCell id="AQWLIPLRf6avw7v2R2J1-7" style="edgeStyle=orthogonalEdgeStyle;rounded=0;orthogonalLoop=1;jettySize=auto;html=1;exitX=0.5;exitY=1;exitDx=0;exitDy=0;exitPerimeter=0;" edge="1" parent="1" source="AQWLIPLRf6avw7v2R2J1-19" target="AQWLIPLRf6avw7v2R2J1-6">
          <mxGeometry relative="1" as="geometry">
            <mxPoint x="620" y="450" as="targetPoint" />
          </mxGeometry>
        </mxCell>
        <mxCell id="AQWLIPLRf6avw7v2R2J1-5" value="start" style="strokeWidth=2;html=1;shape=mxgraph.flowchart.start_1;whiteSpace=wrap;" vertex="1" parent="1">
          <mxGeometry x="570" y="50" width="100" height="60" as="geometry" />
        </mxCell>
        <mxCell id="AQWLIPLRf6avw7v2R2J1-6" value="end" style="strokeWidth=2;html=1;shape=mxgraph.flowchart.start_1;whiteSpace=wrap;" vertex="1" parent="1">
          <mxGeometry x="570" y="660" width="100" height="60" as="geometry" />
        </mxCell>
        <mxCell id="AQWLIPLRf6avw7v2R2J1-8" value="" style="edgeStyle=orthogonalEdgeStyle;rounded=0;orthogonalLoop=1;jettySize=auto;html=1;exitX=0.5;exitY=1;exitDx=0;exitDy=0;exitPerimeter=0;" edge="1" parent="1" source="AQWLIPLRf6avw7v2R2J1-5" target="AQWLIPLRf6avw7v2R2J1-9">
          <mxGeometry relative="1" as="geometry">
            <mxPoint x="620" y="370" as="targetPoint" />
            <mxPoint x="620" y="110" as="sourcePoint" />
          </mxGeometry>
        </mxCell>
        <mxCell id="AQWLIPLRf6avw7v2R2J1-9" value="umano = scegli pari o dispari" style="shape=parallelogram;html=1;strokeWidth=2;perimeter=parallelogramPerimeter;whiteSpace=wrap;rounded=1;arcSize=12;size=0.23;" vertex="1" parent="1">
          <mxGeometry x="502.5" y="130" width="235" height="60" as="geometry" />
        </mxCell>
        <mxCell id="AQWLIPLRf6avw7v2R2J1-10" value="" style="edgeStyle=orthogonalEdgeStyle;rounded=0;orthogonalLoop=1;jettySize=auto;html=1;exitX=0.5;exitY=1;exitDx=0;exitDy=0;exitPerimeter=0;" edge="1" parent="1" source="AQWLIPLRf6avw7v2R2J1-9" target="AQWLIPLRf6avw7v2R2J1-11">
          <mxGeometry relative="1" as="geometry">
            <mxPoint x="620" y="370" as="targetPoint" />
            <mxPoint x="620" y="190" as="sourcePoint" />
          </mxGeometry>
        </mxCell>
        <mxCell id="AQWLIPLRf6avw7v2R2J1-11" value="macchina != umano" style="rounded=1;whiteSpace=wrap;html=1;" vertex="1" parent="1">
          <mxGeometry x="560" y="210" width="120" height="60" as="geometry" />
        </mxCell>
        <mxCell id="AQWLIPLRf6avw7v2R2J1-13" value="" style="edgeStyle=orthogonalEdgeStyle;rounded=0;orthogonalLoop=1;jettySize=auto;html=1;exitX=0.5;exitY=1;exitDx=0;exitDy=0;exitPerimeter=0;" edge="1" parent="1" source="AQWLIPLRf6avw7v2R2J1-11" target="AQWLIPLRf6avw7v2R2J1-12">
          <mxGeometry relative="1" as="geometry">
            <mxPoint x="620" y="530" as="targetPoint" />
            <mxPoint x="620" y="270" as="sourcePoint" />
          </mxGeometry>
        </mxCell>
        <mxCell id="AQWLIPLRf6avw7v2R2J1-12" value="nDitaUmano = scegli 1-5" style="shape=parallelogram;html=1;strokeWidth=2;perimeter=parallelogramPerimeter;whiteSpace=wrap;rounded=1;arcSize=12;size=0.23;" vertex="1" parent="1">
          <mxGeometry x="502.5" y="300" width="235" height="60" as="geometry" />
        </mxCell>
        <mxCell id="AQWLIPLRf6avw7v2R2J1-15" value="" style="edgeStyle=orthogonalEdgeStyle;rounded=0;orthogonalLoop=1;jettySize=auto;html=1;exitX=0.5;exitY=1;exitDx=0;exitDy=0;exitPerimeter=0;" edge="1" parent="1" source="AQWLIPLRf6avw7v2R2J1-12" target="AQWLIPLRf6avw7v2R2J1-14">
          <mxGeometry relative="1" as="geometry">
            <mxPoint x="620" y="530" as="targetPoint" />
            <mxPoint x="620" y="360" as="sourcePoint" />
          </mxGeometry>
        </mxCell>
        <mxCell id="AQWLIPLRf6avw7v2R2J1-14" value="nDitaMacchina = random(1,5)" style="rounded=1;whiteSpace=wrap;html=1;" vertex="1" parent="1">
          <mxGeometry x="520" y="384" width="200" height="60" as="geometry" />
        </mxCell>
        <mxCell id="AQWLIPLRf6avw7v2R2J1-17" value="" style="edgeStyle=orthogonalEdgeStyle;rounded=0;orthogonalLoop=1;jettySize=auto;html=1;exitX=0.5;exitY=1;exitDx=0;exitDy=0;exitPerimeter=0;" edge="1" parent="1" source="AQWLIPLRf6avw7v2R2J1-14" target="AQWLIPLRf6avw7v2R2J1-16">
          <mxGeometry relative="1" as="geometry">
            <mxPoint x="620" y="660" as="targetPoint" />
            <mxPoint x="620" y="444" as="sourcePoint" />
          </mxGeometry>
        </mxCell>
        <mxCell id="AQWLIPLRf6avw7v2R2J1-16" value="result = vittoria&amp;nbsp;" style="rounded=1;whiteSpace=wrap;html=1;" vertex="1" parent="1">
          <mxGeometry x="560" y="480" width="120" height="60" as="geometry" />
        </mxCell>
        <mxCell id="AQWLIPLRf6avw7v2R2J1-18" value="" style="edgeStyle=orthogonalEdgeStyle;rounded=0;orthogonalLoop=1;jettySize=auto;html=1;exitX=0.5;exitY=1;exitDx=0;exitDy=0;exitPerimeter=0;" edge="1" parent="1" source="AQWLIPLRf6avw7v2R2J1-16" target="AQWLIPLRf6avw7v2R2J1-19">
          <mxGeometry relative="1" as="geometry">
            <mxPoint x="620" y="660" as="targetPoint" />
            <mxPoint x="620" y="540" as="sourcePoint" />
          </mxGeometry>
        </mxCell>
        <mxCell id="AQWLIPLRf6avw7v2R2J1-19" value="result" style="shape=parallelogram;html=1;strokeWidth=2;perimeter=parallelogramPerimeter;whiteSpace=wrap;rounded=1;arcSize=12;size=0.23;" vertex="1" parent="1">
          <mxGeometry x="570" y="560" width="100" height="60" as="geometry" />
        </mxCell>
      </root>
    </mxGraphModel>
  </diagram>
  <diagram id="e2i5-TLNofBpydhb--Y-" name="Pagina-9">
    <mxGraphModel dx="2607" dy="1404" grid="1" gridSize="10" guides="1" tooltips="1" connect="1" arrows="1" fold="1" page="1" pageScale="1" pageWidth="1169" pageHeight="827" math="0" shadow="0">
      <root>
        <mxCell id="0" />
        <mxCell id="1" parent="0" />
        <mxCell id="AAki6lfeqZErydb_22W_-20" style="edgeStyle=orthogonalEdgeStyle;rounded=0;orthogonalLoop=1;jettySize=auto;html=1;exitX=0.5;exitY=1;exitDx=0;exitDy=0;exitPerimeter=0;" parent="1" source="AAki6lfeqZErydb_22W_-1" target="AAki6lfeqZErydb_22W_-2" edge="1">
          <mxGeometry relative="1" as="geometry" />
        </mxCell>
        <mxCell id="AAki6lfeqZErydb_22W_-1" value="java" style="shape=cylinder3;whiteSpace=wrap;html=1;boundedLbl=1;backgroundOutline=1;size=15;" parent="1" vertex="1">
          <mxGeometry x="100" y="110" width="60" height="80" as="geometry" />
        </mxCell>
        <mxCell id="AAki6lfeqZErydb_22W_-2" value="canzoni" style="shape=table;startSize=30;container=1;collapsible=1;childLayout=tableLayout;fixedRows=1;rowLines=0;fontStyle=1;align=center;resizeLast=1;html=1;" parent="1" vertex="1">
          <mxGeometry x="40" y="260" width="180" height="120" as="geometry" />
        </mxCell>
        <mxCell id="AAki6lfeqZErydb_22W_-3" value="" style="shape=tableRow;horizontal=0;startSize=0;swimlaneHead=0;swimlaneBody=0;fillColor=none;collapsible=0;dropTarget=0;points=[[0,0.5],[1,0.5]];portConstraint=eastwest;top=0;left=0;right=0;bottom=1;" parent="AAki6lfeqZErydb_22W_-2" vertex="1">
          <mxGeometry y="30" width="180" height="30" as="geometry" />
        </mxCell>
        <mxCell id="AAki6lfeqZErydb_22W_-4" value="PK" style="shape=partialRectangle;connectable=0;fillColor=none;top=0;left=0;bottom=0;right=0;fontStyle=1;overflow=hidden;whiteSpace=wrap;html=1;" parent="AAki6lfeqZErydb_22W_-3" vertex="1">
          <mxGeometry width="30" height="30" as="geometry">
            <mxRectangle width="30" height="30" as="alternateBounds" />
          </mxGeometry>
        </mxCell>
        <mxCell id="AAki6lfeqZErydb_22W_-5" value="id" style="shape=partialRectangle;connectable=0;fillColor=none;top=0;left=0;bottom=0;right=0;align=left;spacingLeft=6;fontStyle=5;overflow=hidden;whiteSpace=wrap;html=1;" parent="AAki6lfeqZErydb_22W_-3" vertex="1">
          <mxGeometry x="30" width="150" height="30" as="geometry">
            <mxRectangle width="150" height="30" as="alternateBounds" />
          </mxGeometry>
        </mxCell>
        <mxCell id="AAki6lfeqZErydb_22W_-6" value="" style="shape=tableRow;horizontal=0;startSize=0;swimlaneHead=0;swimlaneBody=0;fillColor=none;collapsible=0;dropTarget=0;points=[[0,0.5],[1,0.5]];portConstraint=eastwest;top=0;left=0;right=0;bottom=0;" parent="AAki6lfeqZErydb_22W_-2" vertex="1">
          <mxGeometry y="60" width="180" height="30" as="geometry" />
        </mxCell>
        <mxCell id="AAki6lfeqZErydb_22W_-7" value="" style="shape=partialRectangle;connectable=0;fillColor=none;top=0;left=0;bottom=0;right=0;editable=1;overflow=hidden;whiteSpace=wrap;html=1;" parent="AAki6lfeqZErydb_22W_-6" vertex="1">
          <mxGeometry width="30" height="30" as="geometry">
            <mxRectangle width="30" height="30" as="alternateBounds" />
          </mxGeometry>
        </mxCell>
        <mxCell id="AAki6lfeqZErydb_22W_-8" value="titolo" style="shape=partialRectangle;connectable=0;fillColor=none;top=0;left=0;bottom=0;right=0;align=left;spacingLeft=6;overflow=hidden;whiteSpace=wrap;html=1;" parent="AAki6lfeqZErydb_22W_-6" vertex="1">
          <mxGeometry x="30" width="150" height="30" as="geometry">
            <mxRectangle width="150" height="30" as="alternateBounds" />
          </mxGeometry>
        </mxCell>
        <mxCell id="AAki6lfeqZErydb_22W_-9" value="" style="shape=tableRow;horizontal=0;startSize=0;swimlaneHead=0;swimlaneBody=0;fillColor=none;collapsible=0;dropTarget=0;points=[[0,0.5],[1,0.5]];portConstraint=eastwest;top=0;left=0;right=0;bottom=0;" parent="AAki6lfeqZErydb_22W_-2" vertex="1">
          <mxGeometry y="90" width="180" height="30" as="geometry" />
        </mxCell>
        <mxCell id="AAki6lfeqZErydb_22W_-10" value="" style="shape=partialRectangle;connectable=0;fillColor=none;top=0;left=0;bottom=0;right=0;editable=1;overflow=hidden;whiteSpace=wrap;html=1;" parent="AAki6lfeqZErydb_22W_-9" vertex="1">
          <mxGeometry width="30" height="30" as="geometry">
            <mxRectangle width="30" height="30" as="alternateBounds" />
          </mxGeometry>
        </mxCell>
        <mxCell id="AAki6lfeqZErydb_22W_-11" value="cantante" style="shape=partialRectangle;connectable=0;fillColor=none;top=0;left=0;bottom=0;right=0;align=left;spacingLeft=6;overflow=hidden;whiteSpace=wrap;html=1;" parent="AAki6lfeqZErydb_22W_-9" vertex="1">
          <mxGeometry x="30" width="150" height="30" as="geometry">
            <mxRectangle width="150" height="30" as="alternateBounds" />
          </mxGeometry>
        </mxCell>
        <mxCell id="AAki6lfeqZErydb_22W_-15" value="" style="endArrow=none;dashed=1;html=1;dashPattern=1 3;strokeWidth=2;rounded=0;" parent="1" target="AAki6lfeqZErydb_22W_-16" edge="1">
          <mxGeometry width="50" height="50" relative="1" as="geometry">
            <mxPoint x="310" y="470" as="sourcePoint" />
            <mxPoint x="310" y="40" as="targetPoint" />
          </mxGeometry>
        </mxCell>
        <mxCell id="AAki6lfeqZErydb_22W_-18" value="" style="edgeStyle=orthogonalEdgeStyle;rounded=0;orthogonalLoop=1;jettySize=auto;html=1;" parent="1" source="AAki6lfeqZErydb_22W_-16" target="AAki6lfeqZErydb_22W_-17" edge="1">
          <mxGeometry relative="1" as="geometry" />
        </mxCell>
        <mxCell id="AAki6lfeqZErydb_22W_-16" value="" style="verticalLabelPosition=bottom;html=1;verticalAlign=top;align=center;strokeColor=none;fillColor=#00BEF2;shape=mxgraph.azure.mysql_database;" parent="1" vertex="1">
          <mxGeometry x="291.25" y="15" width="37.5" height="50" as="geometry" />
        </mxCell>
        <mxCell id="AAki6lfeqZErydb_22W_-19" value="" style="edgeStyle=orthogonalEdgeStyle;rounded=0;orthogonalLoop=1;jettySize=auto;html=1;" parent="1" source="AAki6lfeqZErydb_22W_-17" target="AAki6lfeqZErydb_22W_-1" edge="1">
          <mxGeometry relative="1" as="geometry" />
        </mxCell>
        <mxCell id="AAki6lfeqZErydb_22W_-17" value="3306" style="whiteSpace=wrap;html=1;verticalAlign=top;fillColor=#008a00;strokeColor=#005700;fontColor=#ffffff;" parent="1" vertex="1">
          <mxGeometry x="70" y="25" width="120" height="30" as="geometry" />
        </mxCell>
        <mxCell id="AAki6lfeqZErydb_22W_-21" value="" style="dashed=0;outlineConnect=0;html=1;align=center;labelPosition=center;verticalLabelPosition=bottom;verticalAlign=top;shape=mxgraph.weblogos.java" parent="1" vertex="1">
          <mxGeometry x="470" y="7.5" width="34.4" height="65" as="geometry" />
        </mxCell>
        <mxCell id="AAki6lfeqZErydb_22W_-22" value="Canzone" style="swimlane;fontStyle=1;align=center;verticalAlign=top;childLayout=stackLayout;horizontal=1;startSize=26;horizontalStack=0;resizeParent=1;resizeParentMax=0;resizeLast=0;collapsible=1;marginBottom=0;whiteSpace=wrap;html=1;" parent="1" vertex="1">
          <mxGeometry x="407.2" y="260" width="160" height="138" as="geometry" />
        </mxCell>
        <mxCell id="AAki6lfeqZErydb_22W_-23" value="- id: int" style="text;strokeColor=none;fillColor=none;align=left;verticalAlign=top;spacingLeft=4;spacingRight=4;overflow=hidden;rotatable=0;points=[[0,0.5],[1,0.5]];portConstraint=eastwest;whiteSpace=wrap;html=1;" parent="AAki6lfeqZErydb_22W_-22" vertex="1">
          <mxGeometry y="26" width="160" height="26" as="geometry" />
        </mxCell>
        <mxCell id="AAki6lfeqZErydb_22W_-26" value="- titolo: String" style="text;strokeColor=none;fillColor=none;align=left;verticalAlign=top;spacingLeft=4;spacingRight=4;overflow=hidden;rotatable=0;points=[[0,0.5],[1,0.5]];portConstraint=eastwest;whiteSpace=wrap;html=1;" parent="AAki6lfeqZErydb_22W_-22" vertex="1">
          <mxGeometry y="52" width="160" height="26" as="geometry" />
        </mxCell>
        <mxCell id="AAki6lfeqZErydb_22W_-27" value="- cantante: String" style="text;strokeColor=none;fillColor=none;align=left;verticalAlign=top;spacingLeft=4;spacingRight=4;overflow=hidden;rotatable=0;points=[[0,0.5],[1,0.5]];portConstraint=eastwest;whiteSpace=wrap;html=1;" parent="AAki6lfeqZErydb_22W_-22" vertex="1">
          <mxGeometry y="78" width="160" height="26" as="geometry" />
        </mxCell>
        <mxCell id="AAki6lfeqZErydb_22W_-24" value="" style="line;strokeWidth=1;fillColor=none;align=left;verticalAlign=middle;spacingTop=-1;spacingLeft=3;spacingRight=3;rotatable=0;labelPosition=right;points=[];portConstraint=eastwest;strokeColor=inherit;" parent="AAki6lfeqZErydb_22W_-22" vertex="1">
          <mxGeometry y="104" width="160" height="8" as="geometry" />
        </mxCell>
        <mxCell id="AAki6lfeqZErydb_22W_-25" value="+ getters, setters" style="text;strokeColor=none;fillColor=none;align=left;verticalAlign=top;spacingLeft=4;spacingRight=4;overflow=hidden;rotatable=0;points=[[0,0.5],[1,0.5]];portConstraint=eastwest;whiteSpace=wrap;html=1;" parent="AAki6lfeqZErydb_22W_-22" vertex="1">
          <mxGeometry y="112" width="160" height="26" as="geometry" />
        </mxCell>
        <mxCell id="AAki6lfeqZErydb_22W_-28" value="@Entity" style="text;strokeColor=none;fillColor=none;html=1;fontSize=24;fontStyle=1;verticalAlign=middle;align=left;" parent="1" vertex="1">
          <mxGeometry x="410" y="220" width="105.6" height="30" as="geometry" />
        </mxCell>
        <mxCell id="AAki6lfeqZErydb_22W_-29" style="edgeStyle=orthogonalEdgeStyle;rounded=0;orthogonalLoop=1;jettySize=auto;html=1;exitX=1;exitY=0.5;exitDx=0;exitDy=0;entryX=0.061;entryY=0.885;entryDx=0;entryDy=0;entryPerimeter=0;startArrow=classic;startFill=1;" parent="1" source="AAki6lfeqZErydb_22W_-3" target="AAki6lfeqZErydb_22W_-23" edge="1">
          <mxGeometry relative="1" as="geometry">
            <Array as="points">
              <mxPoint x="220" y="310" />
              <mxPoint x="314" y="310" />
              <mxPoint x="314" y="309" />
            </Array>
          </mxGeometry>
        </mxCell>
        <mxCell id="AAki6lfeqZErydb_22W_-30" value="entities" style="shape=folder;fontStyle=1;spacingTop=10;tabWidth=40;tabHeight=14;tabPosition=left;html=1;whiteSpace=wrap;fillColor=#fff2cc;strokeColor=#d6b656;" parent="1" vertex="1">
          <mxGeometry x="410" y="160" width="70" height="50" as="geometry" />
        </mxCell>
        <mxCell id="AAki6lfeqZErydb_22W_-31" value="repos" style="shape=folder;fontStyle=1;spacingTop=10;tabWidth=40;tabHeight=14;tabPosition=left;html=1;whiteSpace=wrap;fillColor=#fff2cc;strokeColor=#d6b656;" parent="1" vertex="1">
          <mxGeometry x="620" y="160" width="70" height="50" as="geometry" />
        </mxCell>
        <mxCell id="AAki6lfeqZErydb_22W_-143" value="" style="edgeStyle=orthogonalEdgeStyle;rounded=0;orthogonalLoop=1;jettySize=auto;html=1;" parent="1" source="AAki6lfeqZErydb_22W_-32" target="AAki6lfeqZErydb_22W_-49" edge="1">
          <mxGeometry relative="1" as="geometry" />
        </mxCell>
        <mxCell id="AAki6lfeqZErydb_22W_-32" value="CanzoneDAO" style="swimlane;fontStyle=1;align=center;verticalAlign=top;childLayout=stackLayout;horizontal=1;startSize=26;horizontalStack=0;resizeParent=1;resizeParentMax=0;resizeLast=0;collapsible=1;marginBottom=0;whiteSpace=wrap;html=1;" parent="1" vertex="1">
          <mxGeometry x="620" y="308" width="160" height="34" as="geometry" />
        </mxCell>
        <mxCell id="AAki6lfeqZErydb_22W_-36" value="" style="line;strokeWidth=1;fillColor=none;align=left;verticalAlign=middle;spacingTop=-1;spacingLeft=3;spacingRight=3;rotatable=0;labelPosition=right;points=[];portConstraint=eastwest;strokeColor=inherit;" parent="AAki6lfeqZErydb_22W_-32" vertex="1">
          <mxGeometry y="26" width="160" height="8" as="geometry" />
        </mxCell>
        <mxCell id="AAki6lfeqZErydb_22W_-38" value="@Repository" style="text;strokeColor=none;fillColor=none;html=1;fontSize=24;fontStyle=1;verticalAlign=middle;align=left;" parent="1" vertex="1">
          <mxGeometry x="615" y="270" width="170" height="30" as="geometry" />
        </mxCell>
        <mxCell id="AAki6lfeqZErydb_22W_-39" style="edgeStyle=orthogonalEdgeStyle;rounded=0;orthogonalLoop=1;jettySize=auto;html=1;exitX=1;exitY=0.5;exitDx=0;exitDy=0;entryX=0;entryY=0.5;entryDx=0;entryDy=0;" parent="1" source="AAki6lfeqZErydb_22W_-26" target="AAki6lfeqZErydb_22W_-32" edge="1">
          <mxGeometry relative="1" as="geometry" />
        </mxCell>
        <mxCell id="AAki6lfeqZErydb_22W_-40" value="CanzoneService" style="swimlane;fontStyle=1;align=center;verticalAlign=top;childLayout=stackLayout;horizontal=1;startSize=26;horizontalStack=0;resizeParent=1;resizeParentMax=0;resizeLast=0;collapsible=1;marginBottom=0;whiteSpace=wrap;html=1;" parent="1" vertex="1">
          <mxGeometry x="820" y="260" width="220" height="164" as="geometry" />
        </mxCell>
        <mxCell id="AAki6lfeqZErydb_22W_-44" value="" style="line;strokeWidth=1;fillColor=none;align=left;verticalAlign=middle;spacingTop=-1;spacingLeft=3;spacingRight=3;rotatable=0;labelPosition=right;points=[];portConstraint=eastwest;strokeColor=inherit;" parent="AAki6lfeqZErydb_22W_-40" vertex="1">
          <mxGeometry y="26" width="220" height="8" as="geometry" />
        </mxCell>
        <mxCell id="AAki6lfeqZErydb_22W_-45" value="+ getCanzoni(): List&amp;lt;Canzone&amp;gt;" style="text;strokeColor=none;fillColor=none;align=left;verticalAlign=top;spacingLeft=4;spacingRight=4;overflow=hidden;rotatable=0;points=[[0,0.5],[1,0.5]];portConstraint=eastwest;whiteSpace=wrap;html=1;" parent="AAki6lfeqZErydb_22W_-40" vertex="1">
          <mxGeometry y="34" width="220" height="26" as="geometry" />
        </mxCell>
        <mxCell id="AAki6lfeqZErydb_22W_-48" value="+ getCanzoneById(int id): Canzone" style="text;strokeColor=none;fillColor=none;align=left;verticalAlign=top;spacingLeft=4;spacingRight=4;overflow=hidden;rotatable=0;points=[[0,0.5],[1,0.5]];portConstraint=eastwest;whiteSpace=wrap;html=1;" parent="AAki6lfeqZErydb_22W_-40" vertex="1">
          <mxGeometry y="60" width="220" height="26" as="geometry" />
        </mxCell>
        <mxCell id="AAki6lfeqZErydb_22W_-49" value="+ addCanzone(Canzone): Canzone" style="text;strokeColor=none;fillColor=none;align=left;verticalAlign=top;spacingLeft=4;spacingRight=4;overflow=hidden;rotatable=0;points=[[0,0.5],[1,0.5]];portConstraint=eastwest;whiteSpace=wrap;html=1;" parent="AAki6lfeqZErydb_22W_-40" vertex="1">
          <mxGeometry y="86" width="220" height="26" as="geometry" />
        </mxCell>
        <mxCell id="AAki6lfeqZErydb_22W_-50" value="+ updateCanzone(Canzone): Canzone" style="text;strokeColor=none;fillColor=none;align=left;verticalAlign=top;spacingLeft=4;spacingRight=4;overflow=hidden;rotatable=0;points=[[0,0.5],[1,0.5]];portConstraint=eastwest;whiteSpace=wrap;html=1;" parent="AAki6lfeqZErydb_22W_-40" vertex="1">
          <mxGeometry y="112" width="220" height="26" as="geometry" />
        </mxCell>
        <mxCell id="AAki6lfeqZErydb_22W_-51" value="+ deleteCanzone(Canzone): void" style="text;strokeColor=none;fillColor=none;align=left;verticalAlign=top;spacingLeft=4;spacingRight=4;overflow=hidden;rotatable=0;points=[[0,0.5],[1,0.5]];portConstraint=eastwest;whiteSpace=wrap;html=1;" parent="AAki6lfeqZErydb_22W_-40" vertex="1">
          <mxGeometry y="138" width="220" height="26" as="geometry" />
        </mxCell>
        <mxCell id="AAki6lfeqZErydb_22W_-46" value="services" style="shape=folder;fontStyle=1;spacingTop=10;tabWidth=40;tabHeight=14;tabPosition=left;html=1;whiteSpace=wrap;fillColor=#fff2cc;strokeColor=#d6b656;" parent="1" vertex="1">
          <mxGeometry x="820" y="160" width="70" height="50" as="geometry" />
        </mxCell>
        <mxCell id="AAki6lfeqZErydb_22W_-47" value="@Service" style="text;strokeColor=none;fillColor=none;html=1;fontSize=24;fontStyle=1;verticalAlign=middle;align=left;" parent="1" vertex="1">
          <mxGeometry x="820" y="220" width="170" height="30" as="geometry" />
        </mxCell>
        <mxCell id="AAki6lfeqZErydb_22W_-144" value="" style="edgeStyle=orthogonalEdgeStyle;rounded=0;orthogonalLoop=1;jettySize=auto;html=1;" parent="1" source="AAki6lfeqZErydb_22W_-73" target="AAki6lfeqZErydb_22W_-40" edge="1">
          <mxGeometry relative="1" as="geometry">
            <Array as="points" />
          </mxGeometry>
        </mxCell>
        <mxCell id="AAki6lfeqZErydb_22W_-73" value="CanzoneController" style="swimlane;fontStyle=1;align=center;verticalAlign=top;childLayout=stackLayout;horizontal=1;startSize=26;horizontalStack=0;resizeParent=1;resizeParentMax=0;resizeLast=0;collapsible=1;marginBottom=0;whiteSpace=wrap;html=1;" parent="1" vertex="1">
          <mxGeometry x="1070" y="260" width="220" height="34" as="geometry" />
        </mxCell>
        <mxCell id="AAki6lfeqZErydb_22W_-74" value="" style="line;strokeWidth=1;fillColor=none;align=left;verticalAlign=middle;spacingTop=-1;spacingLeft=3;spacingRight=3;rotatable=0;labelPosition=right;points=[];portConstraint=eastwest;strokeColor=inherit;" parent="AAki6lfeqZErydb_22W_-73" vertex="1">
          <mxGeometry y="26" width="220" height="8" as="geometry" />
        </mxCell>
        <mxCell id="AAki6lfeqZErydb_22W_-80" value="controller" style="shape=folder;fontStyle=1;spacingTop=10;tabWidth=40;tabHeight=14;tabPosition=left;html=1;whiteSpace=wrap;fillColor=#fff2cc;strokeColor=#d6b656;" parent="1" vertex="1">
          <mxGeometry x="1070" y="160" width="70" height="50" as="geometry" />
        </mxCell>
        <mxCell id="AAki6lfeqZErydb_22W_-81" value="@Controller" style="text;strokeColor=none;fillColor=none;html=1;fontSize=24;fontStyle=1;verticalAlign=middle;align=left;" parent="1" vertex="1">
          <mxGeometry x="1070" y="220" width="170" height="30" as="geometry" />
        </mxCell>
        <mxCell id="AAki6lfeqZErydb_22W_-113" style="edgeStyle=orthogonalEdgeStyle;rounded=0;orthogonalLoop=1;jettySize=auto;html=1;exitX=1;exitY=0.25;exitDx=0;exitDy=0;" parent="1" source="AAki6lfeqZErydb_22W_-82" target="AAki6lfeqZErydb_22W_-114" edge="1">
          <mxGeometry relative="1" as="geometry">
            <mxPoint x="1340" y="391" as="targetPoint" />
          </mxGeometry>
        </mxCell>
        <mxCell id="AAki6lfeqZErydb_22W_-82" value="CanzoneController" style="swimlane;fontStyle=1;align=center;verticalAlign=top;childLayout=stackLayout;horizontal=1;startSize=26;horizontalStack=0;resizeParent=1;resizeParentMax=0;resizeLast=0;collapsible=1;marginBottom=0;whiteSpace=wrap;html=1;" parent="1" vertex="1">
          <mxGeometry x="1070" y="382" width="220" height="34" as="geometry" />
        </mxCell>
        <mxCell id="AAki6lfeqZErydb_22W_-83" value="" style="line;strokeWidth=1;fillColor=none;align=left;verticalAlign=middle;spacingTop=-1;spacingLeft=3;spacingRight=3;rotatable=0;labelPosition=right;points=[];portConstraint=eastwest;strokeColor=inherit;" parent="AAki6lfeqZErydb_22W_-82" vertex="1">
          <mxGeometry y="26" width="220" height="8" as="geometry" />
        </mxCell>
        <mxCell id="AAki6lfeqZErydb_22W_-84" value="@RestController" style="text;strokeColor=none;fillColor=none;html=1;fontSize=24;fontStyle=1;verticalAlign=middle;align=left;" parent="1" vertex="1">
          <mxGeometry x="1070" y="342" width="170" height="30" as="geometry" />
        </mxCell>
        <mxCell id="AAki6lfeqZErydb_22W_-86" value="" style="strokeWidth=1;shadow=0;dashed=0;align=center;html=1;shape=mxgraph.mockup.containers.browserWindow;rSize=0;strokeColor=#666666;strokeColor2=#008cff;strokeColor3=#c4c4c4;mainText=,;recursiveResize=0;" parent="1" vertex="1">
          <mxGeometry x="1515.13" y="50" width="520" height="357" as="geometry" />
        </mxCell>
        <mxCell id="AAki6lfeqZErydb_22W_-87" value="Page 1" style="strokeWidth=1;shadow=0;dashed=0;align=center;html=1;shape=mxgraph.mockup.containers.anchor;fontSize=17;fontColor=#666666;align=left;whiteSpace=wrap;" parent="AAki6lfeqZErydb_22W_-86" vertex="1">
          <mxGeometry x="60" y="12" width="110" height="26" as="geometry" />
        </mxCell>
        <mxCell id="AAki6lfeqZErydb_22W_-88" value="http://canzoni/all" style="strokeWidth=1;shadow=0;dashed=0;align=center;html=1;shape=mxgraph.mockup.containers.anchor;rSize=0;fontSize=17;fontColor=#666666;align=left;" parent="AAki6lfeqZErydb_22W_-86" vertex="1">
          <mxGeometry x="130" y="60" width="250" height="26" as="geometry" />
        </mxCell>
        <mxCell id="AAki6lfeqZErydb_22W_-90" value="Assets" style="childLayout=tableLayout;recursiveResize=0;strokeColor=#98bf21;fillColor=#A7C942;shadow=1;" parent="AAki6lfeqZErydb_22W_-86" vertex="1">
          <mxGeometry x="140" y="167" width="280" height="160" as="geometry" />
        </mxCell>
        <mxCell id="AAki6lfeqZErydb_22W_-91" style="shape=tableRow;horizontal=0;startSize=0;swimlaneHead=0;swimlaneBody=0;top=0;left=0;bottom=0;right=0;dropTarget=0;collapsible=0;recursiveResize=0;expand=0;fontStyle=0;strokeColor=inherit;fillColor=#ffffff;" parent="AAki6lfeqZErydb_22W_-90" vertex="1">
          <mxGeometry width="280" height="33" as="geometry" />
        </mxCell>
        <mxCell id="AAki6lfeqZErydb_22W_-92" value="id" style="connectable=0;recursiveResize=0;strokeColor=inherit;fillColor=#A7C942;align=center;fontStyle=1;fontColor=#FFFFFF;html=1;" parent="AAki6lfeqZErydb_22W_-91" vertex="1">
          <mxGeometry width="93" height="33" as="geometry">
            <mxRectangle width="93" height="33" as="alternateBounds" />
          </mxGeometry>
        </mxCell>
        <mxCell id="AAki6lfeqZErydb_22W_-93" value="titolo" style="connectable=0;recursiveResize=0;strokeColor=inherit;fillColor=#A7C942;align=center;fontStyle=1;fontColor=#FFFFFF;html=1;" parent="AAki6lfeqZErydb_22W_-91" vertex="1">
          <mxGeometry x="93" width="94" height="33" as="geometry">
            <mxRectangle width="94" height="33" as="alternateBounds" />
          </mxGeometry>
        </mxCell>
        <mxCell id="AAki6lfeqZErydb_22W_-94" value="cantante" style="connectable=0;recursiveResize=0;strokeColor=inherit;fillColor=#A7C942;align=center;fontStyle=1;fontColor=#FFFFFF;html=1;" parent="AAki6lfeqZErydb_22W_-91" vertex="1">
          <mxGeometry x="187" width="93" height="33" as="geometry">
            <mxRectangle width="93" height="33" as="alternateBounds" />
          </mxGeometry>
        </mxCell>
        <mxCell id="AAki6lfeqZErydb_22W_-95" value="" style="shape=tableRow;horizontal=0;startSize=0;swimlaneHead=0;swimlaneBody=0;top=0;left=0;bottom=0;right=0;dropTarget=0;collapsible=0;recursiveResize=0;expand=0;fontStyle=0;strokeColor=inherit;fillColor=#ffffff;" parent="AAki6lfeqZErydb_22W_-90" vertex="1">
          <mxGeometry y="33" width="280" height="32" as="geometry" />
        </mxCell>
        <mxCell id="AAki6lfeqZErydb_22W_-96" value="Value 1" style="connectable=0;recursiveResize=0;strokeColor=inherit;fillColor=inherit;align=center;whiteSpace=wrap;html=1;" parent="AAki6lfeqZErydb_22W_-95" vertex="1">
          <mxGeometry width="93" height="32" as="geometry">
            <mxRectangle width="93" height="32" as="alternateBounds" />
          </mxGeometry>
        </mxCell>
        <mxCell id="AAki6lfeqZErydb_22W_-97" value="Value 2" style="connectable=0;recursiveResize=0;strokeColor=inherit;fillColor=inherit;align=center;whiteSpace=wrap;html=1;" parent="AAki6lfeqZErydb_22W_-95" vertex="1">
          <mxGeometry x="93" width="94" height="32" as="geometry">
            <mxRectangle width="94" height="32" as="alternateBounds" />
          </mxGeometry>
        </mxCell>
        <mxCell id="AAki6lfeqZErydb_22W_-98" value="Value 3" style="connectable=0;recursiveResize=0;strokeColor=inherit;fillColor=inherit;align=center;whiteSpace=wrap;html=1;" parent="AAki6lfeqZErydb_22W_-95" vertex="1">
          <mxGeometry x="187" width="93" height="32" as="geometry">
            <mxRectangle width="93" height="32" as="alternateBounds" />
          </mxGeometry>
        </mxCell>
        <mxCell id="AAki6lfeqZErydb_22W_-99" value="" style="shape=tableRow;horizontal=0;startSize=0;swimlaneHead=0;swimlaneBody=0;top=0;left=0;bottom=0;right=0;dropTarget=0;collapsible=0;recursiveResize=0;expand=0;fontStyle=1;strokeColor=inherit;fillColor=#EAF2D3;" parent="AAki6lfeqZErydb_22W_-90" vertex="1">
          <mxGeometry y="65" width="280" height="31" as="geometry" />
        </mxCell>
        <mxCell id="AAki6lfeqZErydb_22W_-100" value="Value 4" style="connectable=0;recursiveResize=0;strokeColor=inherit;fillColor=inherit;whiteSpace=wrap;html=1;" parent="AAki6lfeqZErydb_22W_-99" vertex="1">
          <mxGeometry width="93" height="31" as="geometry">
            <mxRectangle width="93" height="31" as="alternateBounds" />
          </mxGeometry>
        </mxCell>
        <mxCell id="AAki6lfeqZErydb_22W_-101" value="Value 5" style="connectable=0;recursiveResize=0;strokeColor=inherit;fillColor=inherit;whiteSpace=wrap;html=1;" parent="AAki6lfeqZErydb_22W_-99" vertex="1">
          <mxGeometry x="93" width="94" height="31" as="geometry">
            <mxRectangle width="94" height="31" as="alternateBounds" />
          </mxGeometry>
        </mxCell>
        <mxCell id="AAki6lfeqZErydb_22W_-102" value="Value 6" style="connectable=0;recursiveResize=0;strokeColor=inherit;fillColor=inherit;whiteSpace=wrap;html=1;" parent="AAki6lfeqZErydb_22W_-99" vertex="1">
          <mxGeometry x="187" width="93" height="31" as="geometry">
            <mxRectangle width="93" height="31" as="alternateBounds" />
          </mxGeometry>
        </mxCell>
        <mxCell id="AAki6lfeqZErydb_22W_-103" value="" style="shape=tableRow;horizontal=0;startSize=0;swimlaneHead=0;swimlaneBody=0;top=0;left=0;bottom=0;right=0;dropTarget=0;collapsible=0;recursiveResize=0;expand=0;fontStyle=0;strokeColor=inherit;fillColor=#ffffff;" parent="AAki6lfeqZErydb_22W_-90" vertex="1">
          <mxGeometry y="96" width="280" height="33" as="geometry" />
        </mxCell>
        <mxCell id="AAki6lfeqZErydb_22W_-104" value="Value 7" style="connectable=0;recursiveResize=0;strokeColor=inherit;fillColor=inherit;fontStyle=0;align=center;whiteSpace=wrap;html=1;" parent="AAki6lfeqZErydb_22W_-103" vertex="1">
          <mxGeometry width="93" height="33" as="geometry">
            <mxRectangle width="93" height="33" as="alternateBounds" />
          </mxGeometry>
        </mxCell>
        <mxCell id="AAki6lfeqZErydb_22W_-105" value="Value 8" style="connectable=0;recursiveResize=0;strokeColor=inherit;fillColor=inherit;fontStyle=0;align=center;whiteSpace=wrap;html=1;" parent="AAki6lfeqZErydb_22W_-103" vertex="1">
          <mxGeometry x="93" width="94" height="33" as="geometry">
            <mxRectangle width="94" height="33" as="alternateBounds" />
          </mxGeometry>
        </mxCell>
        <mxCell id="AAki6lfeqZErydb_22W_-106" value="Value 9" style="connectable=0;recursiveResize=0;strokeColor=inherit;fillColor=inherit;fontStyle=0;align=center;whiteSpace=wrap;html=1;" parent="AAki6lfeqZErydb_22W_-103" vertex="1">
          <mxGeometry x="187" width="93" height="33" as="geometry">
            <mxRectangle width="93" height="33" as="alternateBounds" />
          </mxGeometry>
        </mxCell>
        <mxCell id="AAki6lfeqZErydb_22W_-107" value="" style="shape=tableRow;horizontal=0;startSize=0;swimlaneHead=0;swimlaneBody=0;top=0;left=0;bottom=0;right=0;dropTarget=0;collapsible=0;recursiveResize=0;expand=0;fontStyle=1;strokeColor=inherit;fillColor=#EAF2D3;" parent="AAki6lfeqZErydb_22W_-90" vertex="1">
          <mxGeometry y="129" width="280" height="31" as="geometry" />
        </mxCell>
        <mxCell id="AAki6lfeqZErydb_22W_-108" value="Value 10" style="connectable=0;recursiveResize=0;strokeColor=inherit;fillColor=inherit;whiteSpace=wrap;html=1;" parent="AAki6lfeqZErydb_22W_-107" vertex="1">
          <mxGeometry width="93" height="31" as="geometry">
            <mxRectangle width="93" height="31" as="alternateBounds" />
          </mxGeometry>
        </mxCell>
        <mxCell id="AAki6lfeqZErydb_22W_-109" value="Value 11" style="connectable=0;recursiveResize=0;strokeColor=inherit;fillColor=inherit;whiteSpace=wrap;html=1;" parent="AAki6lfeqZErydb_22W_-107" vertex="1">
          <mxGeometry x="93" width="94" height="31" as="geometry">
            <mxRectangle width="94" height="31" as="alternateBounds" />
          </mxGeometry>
        </mxCell>
        <mxCell id="AAki6lfeqZErydb_22W_-110" value="Value 12" style="connectable=0;recursiveResize=0;strokeColor=inherit;fillColor=inherit;whiteSpace=wrap;html=1;" parent="AAki6lfeqZErydb_22W_-107" vertex="1">
          <mxGeometry x="187" width="93" height="31" as="geometry">
            <mxRectangle width="93" height="31" as="alternateBounds" />
          </mxGeometry>
        </mxCell>
        <mxCell id="AAki6lfeqZErydb_22W_-111" value="Canzoni" style="text;strokeColor=none;fillColor=none;html=1;fontSize=24;fontStyle=1;verticalAlign=middle;align=center;" parent="AAki6lfeqZErydb_22W_-86" vertex="1">
          <mxGeometry x="140" y="123" width="100" height="40" as="geometry" />
        </mxCell>
        <mxCell id="AAki6lfeqZErydb_22W_-89" style="edgeStyle=orthogonalEdgeStyle;rounded=0;orthogonalLoop=1;jettySize=auto;html=1;exitX=1;exitY=0.5;exitDx=0;exitDy=0;entryX=0;entryY=0.489;entryDx=0;entryDy=0;entryPerimeter=0;" parent="1" source="AAki6lfeqZErydb_22W_-73" target="AAki6lfeqZErydb_22W_-86" edge="1">
          <mxGeometry relative="1" as="geometry" />
        </mxCell>
        <mxCell id="AAki6lfeqZErydb_22W_-112" value="" style="sketch=0;outlineConnect=0;fontColor=#232F3E;gradientColor=none;fillColor=#232F3D;strokeColor=none;dashed=0;verticalLabelPosition=bottom;verticalAlign=top;align=center;html=1;fontSize=12;fontStyle=0;aspect=fixed;pointerEvents=1;shape=mxgraph.aws4.client;" parent="1" vertex="1">
          <mxGeometry x="1380" y="570" width="790.26" height="770" as="geometry" />
        </mxCell>
        <mxCell id="AAki6lfeqZErydb_22W_-114" value="" style="dashed=0;outlineConnect=0;html=1;align=center;labelPosition=center;verticalLabelPosition=bottom;verticalAlign=top;shape=mxgraph.weblogos.json" parent="1" vertex="1">
          <mxGeometry x="1330" y="348.20000000000005" width="70" height="75.8" as="geometry" />
        </mxCell>
        <mxCell id="AAki6lfeqZErydb_22W_-116" value="" style="edgeStyle=orthogonalEdgeStyle;rounded=0;orthogonalLoop=1;jettySize=auto;html=1;" parent="1" source="AAki6lfeqZErydb_22W_-115" target="AAki6lfeqZErydb_22W_-114" edge="1">
          <mxGeometry relative="1" as="geometry" />
        </mxCell>
        <mxCell id="AAki6lfeqZErydb_22W_-117" value="" style="edgeStyle=orthogonalEdgeStyle;rounded=0;orthogonalLoop=1;jettySize=auto;html=1;" parent="1" source="AAki6lfeqZErydb_22W_-115" target="AAki6lfeqZErydb_22W_-112" edge="1">
          <mxGeometry relative="1" as="geometry" />
        </mxCell>
        <mxCell id="AAki6lfeqZErydb_22W_-115" value="" style="shape=image;html=1;verticalAlign=top;verticalLabelPosition=bottom;labelBackgroundColor=#ffffff;imageAspect=0;aspect=fixed;image=https://cdn4.iconfinder.com/data/icons/scripting-and-programming-languages/512/js-128.png" parent="1" vertex="1">
          <mxGeometry x="1440" y="450" width="48" height="48" as="geometry" />
        </mxCell>
        <mxCell id="AAki6lfeqZErydb_22W_-118" value="" style="strokeWidth=1;shadow=0;dashed=0;align=center;html=1;shape=mxgraph.mockup.containers.browserWindow;rSize=0;strokeColor=#666666;strokeColor2=#008cff;strokeColor3=#c4c4c4;mainText=,;recursiveResize=0;" parent="1" vertex="1">
          <mxGeometry x="1515.13" y="680" width="520" height="357" as="geometry" />
        </mxCell>
        <mxCell id="AAki6lfeqZErydb_22W_-119" value="Page 1" style="strokeWidth=1;shadow=0;dashed=0;align=center;html=1;shape=mxgraph.mockup.containers.anchor;fontSize=17;fontColor=#666666;align=left;whiteSpace=wrap;" parent="AAki6lfeqZErydb_22W_-118" vertex="1">
          <mxGeometry x="60" y="12" width="110" height="26" as="geometry" />
        </mxCell>
        <mxCell id="AAki6lfeqZErydb_22W_-120" value="http://canzoni/all" style="strokeWidth=1;shadow=0;dashed=0;align=center;html=1;shape=mxgraph.mockup.containers.anchor;rSize=0;fontSize=17;fontColor=#666666;align=left;" parent="AAki6lfeqZErydb_22W_-118" vertex="1">
          <mxGeometry x="130" y="60" width="250" height="26" as="geometry" />
        </mxCell>
        <mxCell id="AAki6lfeqZErydb_22W_-121" value="Assets" style="childLayout=tableLayout;recursiveResize=0;strokeColor=#98bf21;fillColor=#A7C942;shadow=1;" parent="AAki6lfeqZErydb_22W_-118" vertex="1">
          <mxGeometry x="140" y="167" width="280" height="160" as="geometry" />
        </mxCell>
        <mxCell id="AAki6lfeqZErydb_22W_-122" style="shape=tableRow;horizontal=0;startSize=0;swimlaneHead=0;swimlaneBody=0;top=0;left=0;bottom=0;right=0;dropTarget=0;collapsible=0;recursiveResize=0;expand=0;fontStyle=0;strokeColor=inherit;fillColor=#ffffff;" parent="AAki6lfeqZErydb_22W_-121" vertex="1">
          <mxGeometry width="280" height="33" as="geometry" />
        </mxCell>
        <mxCell id="AAki6lfeqZErydb_22W_-123" value="id" style="connectable=0;recursiveResize=0;strokeColor=inherit;fillColor=#A7C942;align=center;fontStyle=1;fontColor=#FFFFFF;html=1;" parent="AAki6lfeqZErydb_22W_-122" vertex="1">
          <mxGeometry width="93" height="33" as="geometry">
            <mxRectangle width="93" height="33" as="alternateBounds" />
          </mxGeometry>
        </mxCell>
        <mxCell id="AAki6lfeqZErydb_22W_-124" value="titolo" style="connectable=0;recursiveResize=0;strokeColor=inherit;fillColor=#A7C942;align=center;fontStyle=1;fontColor=#FFFFFF;html=1;" parent="AAki6lfeqZErydb_22W_-122" vertex="1">
          <mxGeometry x="93" width="94" height="33" as="geometry">
            <mxRectangle width="94" height="33" as="alternateBounds" />
          </mxGeometry>
        </mxCell>
        <mxCell id="AAki6lfeqZErydb_22W_-125" value="cantante" style="connectable=0;recursiveResize=0;strokeColor=inherit;fillColor=#A7C942;align=center;fontStyle=1;fontColor=#FFFFFF;html=1;" parent="AAki6lfeqZErydb_22W_-122" vertex="1">
          <mxGeometry x="187" width="93" height="33" as="geometry">
            <mxRectangle width="93" height="33" as="alternateBounds" />
          </mxGeometry>
        </mxCell>
        <mxCell id="AAki6lfeqZErydb_22W_-126" value="" style="shape=tableRow;horizontal=0;startSize=0;swimlaneHead=0;swimlaneBody=0;top=0;left=0;bottom=0;right=0;dropTarget=0;collapsible=0;recursiveResize=0;expand=0;fontStyle=0;strokeColor=inherit;fillColor=#ffffff;" parent="AAki6lfeqZErydb_22W_-121" vertex="1">
          <mxGeometry y="33" width="280" height="32" as="geometry" />
        </mxCell>
        <mxCell id="AAki6lfeqZErydb_22W_-127" value="Value 1" style="connectable=0;recursiveResize=0;strokeColor=inherit;fillColor=inherit;align=center;whiteSpace=wrap;html=1;" parent="AAki6lfeqZErydb_22W_-126" vertex="1">
          <mxGeometry width="93" height="32" as="geometry">
            <mxRectangle width="93" height="32" as="alternateBounds" />
          </mxGeometry>
        </mxCell>
        <mxCell id="AAki6lfeqZErydb_22W_-128" value="Value 2" style="connectable=0;recursiveResize=0;strokeColor=inherit;fillColor=inherit;align=center;whiteSpace=wrap;html=1;" parent="AAki6lfeqZErydb_22W_-126" vertex="1">
          <mxGeometry x="93" width="94" height="32" as="geometry">
            <mxRectangle width="94" height="32" as="alternateBounds" />
          </mxGeometry>
        </mxCell>
        <mxCell id="AAki6lfeqZErydb_22W_-129" value="Value 3" style="connectable=0;recursiveResize=0;strokeColor=inherit;fillColor=inherit;align=center;whiteSpace=wrap;html=1;" parent="AAki6lfeqZErydb_22W_-126" vertex="1">
          <mxGeometry x="187" width="93" height="32" as="geometry">
            <mxRectangle width="93" height="32" as="alternateBounds" />
          </mxGeometry>
        </mxCell>
        <mxCell id="AAki6lfeqZErydb_22W_-130" value="" style="shape=tableRow;horizontal=0;startSize=0;swimlaneHead=0;swimlaneBody=0;top=0;left=0;bottom=0;right=0;dropTarget=0;collapsible=0;recursiveResize=0;expand=0;fontStyle=1;strokeColor=inherit;fillColor=#EAF2D3;" parent="AAki6lfeqZErydb_22W_-121" vertex="1">
          <mxGeometry y="65" width="280" height="31" as="geometry" />
        </mxCell>
        <mxCell id="AAki6lfeqZErydb_22W_-131" value="Value 4" style="connectable=0;recursiveResize=0;strokeColor=inherit;fillColor=inherit;whiteSpace=wrap;html=1;" parent="AAki6lfeqZErydb_22W_-130" vertex="1">
          <mxGeometry width="93" height="31" as="geometry">
            <mxRectangle width="93" height="31" as="alternateBounds" />
          </mxGeometry>
        </mxCell>
        <mxCell id="AAki6lfeqZErydb_22W_-132" value="Value 5" style="connectable=0;recursiveResize=0;strokeColor=inherit;fillColor=inherit;whiteSpace=wrap;html=1;" parent="AAki6lfeqZErydb_22W_-130" vertex="1">
          <mxGeometry x="93" width="94" height="31" as="geometry">
            <mxRectangle width="94" height="31" as="alternateBounds" />
          </mxGeometry>
        </mxCell>
        <mxCell id="AAki6lfeqZErydb_22W_-133" value="Value 6" style="connectable=0;recursiveResize=0;strokeColor=inherit;fillColor=inherit;whiteSpace=wrap;html=1;" parent="AAki6lfeqZErydb_22W_-130" vertex="1">
          <mxGeometry x="187" width="93" height="31" as="geometry">
            <mxRectangle width="93" height="31" as="alternateBounds" />
          </mxGeometry>
        </mxCell>
        <mxCell id="AAki6lfeqZErydb_22W_-134" value="" style="shape=tableRow;horizontal=0;startSize=0;swimlaneHead=0;swimlaneBody=0;top=0;left=0;bottom=0;right=0;dropTarget=0;collapsible=0;recursiveResize=0;expand=0;fontStyle=0;strokeColor=inherit;fillColor=#ffffff;" parent="AAki6lfeqZErydb_22W_-121" vertex="1">
          <mxGeometry y="96" width="280" height="33" as="geometry" />
        </mxCell>
        <mxCell id="AAki6lfeqZErydb_22W_-135" value="Value 7" style="connectable=0;recursiveResize=0;strokeColor=inherit;fillColor=inherit;fontStyle=0;align=center;whiteSpace=wrap;html=1;" parent="AAki6lfeqZErydb_22W_-134" vertex="1">
          <mxGeometry width="93" height="33" as="geometry">
            <mxRectangle width="93" height="33" as="alternateBounds" />
          </mxGeometry>
        </mxCell>
        <mxCell id="AAki6lfeqZErydb_22W_-136" value="Value 8" style="connectable=0;recursiveResize=0;strokeColor=inherit;fillColor=inherit;fontStyle=0;align=center;whiteSpace=wrap;html=1;" parent="AAki6lfeqZErydb_22W_-134" vertex="1">
          <mxGeometry x="93" width="94" height="33" as="geometry">
            <mxRectangle width="94" height="33" as="alternateBounds" />
          </mxGeometry>
        </mxCell>
        <mxCell id="AAki6lfeqZErydb_22W_-137" value="Value 9" style="connectable=0;recursiveResize=0;strokeColor=inherit;fillColor=inherit;fontStyle=0;align=center;whiteSpace=wrap;html=1;" parent="AAki6lfeqZErydb_22W_-134" vertex="1">
          <mxGeometry x="187" width="93" height="33" as="geometry">
            <mxRectangle width="93" height="33" as="alternateBounds" />
          </mxGeometry>
        </mxCell>
        <mxCell id="AAki6lfeqZErydb_22W_-138" value="" style="shape=tableRow;horizontal=0;startSize=0;swimlaneHead=0;swimlaneBody=0;top=0;left=0;bottom=0;right=0;dropTarget=0;collapsible=0;recursiveResize=0;expand=0;fontStyle=1;strokeColor=inherit;fillColor=#EAF2D3;" parent="AAki6lfeqZErydb_22W_-121" vertex="1">
          <mxGeometry y="129" width="280" height="31" as="geometry" />
        </mxCell>
        <mxCell id="AAki6lfeqZErydb_22W_-139" value="Value 10" style="connectable=0;recursiveResize=0;strokeColor=inherit;fillColor=inherit;whiteSpace=wrap;html=1;" parent="AAki6lfeqZErydb_22W_-138" vertex="1">
          <mxGeometry width="93" height="31" as="geometry">
            <mxRectangle width="93" height="31" as="alternateBounds" />
          </mxGeometry>
        </mxCell>
        <mxCell id="AAki6lfeqZErydb_22W_-140" value="Value 11" style="connectable=0;recursiveResize=0;strokeColor=inherit;fillColor=inherit;whiteSpace=wrap;html=1;" parent="AAki6lfeqZErydb_22W_-138" vertex="1">
          <mxGeometry x="93" width="94" height="31" as="geometry">
            <mxRectangle width="94" height="31" as="alternateBounds" />
          </mxGeometry>
        </mxCell>
        <mxCell id="AAki6lfeqZErydb_22W_-141" value="Value 12" style="connectable=0;recursiveResize=0;strokeColor=inherit;fillColor=inherit;whiteSpace=wrap;html=1;" parent="AAki6lfeqZErydb_22W_-138" vertex="1">
          <mxGeometry x="187" width="93" height="31" as="geometry">
            <mxRectangle width="93" height="31" as="alternateBounds" />
          </mxGeometry>
        </mxCell>
        <mxCell id="AAki6lfeqZErydb_22W_-142" value="Canzoni" style="text;strokeColor=none;fillColor=none;html=1;fontSize=24;fontStyle=1;verticalAlign=middle;align=center;" parent="AAki6lfeqZErydb_22W_-118" vertex="1">
          <mxGeometry x="140" y="123" width="100" height="40" as="geometry" />
        </mxCell>
      </root>
    </mxGraphModel>
  </diagram>
</mxfile>
